/* XPM */
static char *_474552217488[] = {
/* columns rows colors chars-per-pixel */
"31 32 244 2 ",
"   c black",
".  c #010101",
"X  c #020202",
"o  c gray1",
"O  c #040404",
"+  c #050405",
"@  c gray2",
"#  c #060606",
"$  c #070707",
"%  c gray3",
"&  c #090809",
"*  c #090909",
"=  c #09090A",
"-  c #0A090A",
";  c #0B0B0B",
":  c #0C0C0C",
">  c #0D0C0D",
",  c gray5",
"<  c #0E0D0E",
"1  c #0E0E0E",
"2  c gray6",
"3  c #100F10",
"4  c #111111",
"5  c #131213",
"6  c #131313",
"7  c gray8",
"8  c #151415",
"9  c #151515",
"0  c #161616",
"q  c #181718",
"w  c #181818",
"e  c #191919",
"r  c #1A191A",
"t  c #1B1B1B",
"y  c gray11",
"u  c #1D1D1D",
"i  c gray12",
"p  c #212021",
"a  c gray13",
"s  c #222122",
"d  c #222222",
"f  c #232323",
"g  c #282728",
"h  c #2A292A",
"j  c #2A2A2A",
"k  c #2C2B2C",
"l  c #2C2C2C",
"z  c #2D2C2D",
"x  c #2D2D2D",
"c  c gray18",
"v  c #302F30",
"b  c gray19",
"n  c #323132",
"m  c #353535",
"M  c #363536",
"N  c #373737",
"B  c #383738",
"V  c gray22",
"C  c #3F3E3F",
"Z  c #3F3F3F",
"A  c #403F40",
"S  c #414041",
"D  c #414141",
"F  c #424142",
"G  c gray26",
"H  c #454445",
"J  c gray27",
"K  c #464646",
"L  c #474647",
"P  c #484848",
"I  c #4A494A",
"U  c #4C4C4C",
"Y  c #4E4D4E",
"T  c #4E4E4E",
"R  c gray31",
"E  c #525152",
"W  c #545354",
"Q  c #555555",
"!  c #565656",
"~  c gray35",
"^  c #5A595A",
"/  c #5B5A5B",
"(  c gray36",
")  c gray37",
"_  c #5F5E5F",
"`  c #5F5F5F",
"'  c #606060",
"]  c #606061",
"[  c #626262",
"{  c gray39",
"}  c #636364",
"|  c #646364",
" . c #646465",
".. c #656465",
"X. c gray40",
"o. c #676767",
"O. c DimGray",
"+. c #6A696A",
"@. c #6B6A6B",
"#. c gray42",
"$. c #6C6B6C",
"%. c #6C6C6C",
"&. c #6E6D6E",
"*. c gray43",
"=. c #6F6F6F",
"-. c gray44",
";. c #707071",
":. c #717171",
">. c #727272",
",. c gray47",
"<. c #797879",
"1. c #797979",
"2. c gray48",
"3. c #7B7A7B",
"4. c #7B7B7B",
"5. c #7C7B7C",
"6. c #807F80",
"7. c #828182",
"8. c gray51",
"9. c #838383",
"0. c #848384",
"q. c gray52",
"w. c #868686",
"e. c gray53",
"r. c #888888",
"t. c #898889",
"y. c #898989",
"u. c gray54",
"i. c #8B8B8B",
"p. c #8D8D8D",
"a. c #8E8E8E",
"s. c gray56",
"d. c #919091",
"f. c gray57",
"g. c #929192",
"h. c #929292",
"j. c #939393",
"k. c gray58",
"l. c #959595",
"z. c gray59",
"x. c #979797",
"c. c #989798",
"v. c #999899",
"b. c #9A999A",
"n. c #9E9D9E",
"m. c gray62",
"M. c #9F9F9F",
"N. c #A09FA0",
"B. c #A1A0A1",
"V. c gray63",
"C. c #A2A1A2",
"Z. c gray64",
"A. c #A5A5A5",
"S. c #A6A5A6",
"D. c gray65",
"F. c #A7A6A7",
"G. c #A7A7A7",
"H. c gray66",
"J. c #A9A8A9",
"K. c #AAA9AA",
"L. c #AAAAAA",
"P. c gray67",
"I. c gray68",
"U. c gray69",
"Y. c #B1B0B1",
"T. c #B1B1B1",
"R. c #B2B2B2",
"E. c #B7B7B7",
"W. c #B8B7B8",
"Q. c #B9B9B9",
"!. c #BBBBBB",
"~. c #BCBBBC",
"^. c gray74",
"/. c #BEBDBE",
"(. c #BFBEBF",
"). c gray75",
"_. c #C1C1C1",
"`. c #C4C3C4",
"'. c gray77",
"]. c gray78",
"[. c #C8C8C8",
"{. c #C9C8C9",
"}. c #CAC9CA",
"|. c #CACACA",
" X c #CBCBCB",
".X c #CDCDCD",
"XX c #CECDCE",
"oX c #CECECE",
"OX c gray81",
"+X c #D0D0D0",
"@X c #D1D0D1",
"#X c LightGray",
"$X c gray83",
"%X c #D5D4D5",
"&X c #D5D5D5",
"*X c #D6D5D6",
"=X c gray84",
"-X c #D7D7D7",
";X c #D8D8D8",
":X c gray85",
">X c #DAD9DA",
",X c #DADADA",
"<X c #DBDADB",
"1X c gray86",
"2X c gainsboro",
"3X c #DDDCDD",
"4X c #DDDDDD",
"5X c #DEDDDE",
"6X c gray87",
"7X c #DFDFDF",
"8X c #DFDFE0",
"9X c #E0E0E1",
"0X c #E1E1E1",
"qX c #E2E1E2",
"wX c #E2E2E2",
"eX c gray89",
"rX c #E4E4E4",
"tX c gray90",
"yX c #E6E5E6",
"uX c #E6E6E6",
"iX c #E7E6E7",
"pX c #E7E7E7",
"aX c gray91",
"sX c #E9E9E9",
"dX c #EAEAEA",
"fX c #EBEAEB",
"gX c gray93",
"hX c #EFEFEF",
"jX c #F0EFF0",
"kX c #F1F1F1",
"lX c #F2F1F2",
"zX c #F4F4F4",
"xX c gray96",
"cX c #F6F6F6",
"vX c #F8F8F8",
"bX c #F9F8F9",
"nX c #F9F9F9",
"mX c gray98",
"MX c #FAFAFB",
"NX c #FBFBFB",
"BX c #FDFDFD",
"VX c #FEFEFE",
"CX c white",
"ZX c None",
/* pixels */
"ZXZXZXZXZXZX!                                                 ",
"ZXZXZXZXZXo.0 ^.;X;X;X;X;XoXoXoX X=X;X;X;X;X;X1X;X;X;X;X+XI.# ",
"ZXZXZXZX*.: =XBX2.*.O.*.;.=XcX6XBXr.' ' *.O.O.*.*.*.*.*.E.sX# ",
"ZXZXZXZX% +XBXK         u vXsXb.sXh.u.^                 ;.sX  ",
"ZXZXZX# [.BXE         0 c.*.z.^ y h.BXBXo.:             2.iXO ",
"ZXZX# _.BX^           ! BXsXR.    ( BXBXBXL.5           2.iXO ",
"ZX# Q.BX[             B $.u.o.    8 c.iXu.0             ,.iX# ",
"  Z.BX*.              %X@X^.q.        5                 ,.iXO ",
"  eXL.              e F.O.*.<.                          2.iXO ",
"  6Xh.              5 F.6XgX=Xk                         2.iXO ",
"  6Xz.              C L.q.2.3.6.d                       2.uX# ",
"  6Xz.          # ( oXBXBXBXBXBXBX=Xj.V                 ,.uXO ",
"  eXz.        e =XBXhX XW.`.3XoXm.u.U.Z.                2.uX# ",
"  6Xz.        % F.P ` N.[.W.F.u.Z.I.=.E                 ,.uXO ",
"  6Xz.      : I N.7XvX-X3XvXBXBXBXBXjXiX[.V             2.uX# ",
"  6Xz.      o.BX`.;.d   # p G =.u.N 3 i W G             ,.uXO ",
"  6Xz.      M L.    h   u.6X^.s.' 0.oX( | % o u G A %   2.iX# ",
"  6Xz.        e   d.z.  x L.iXBXBXBXvXI H.eXrXvXNXBX9X7.2.iXO ",
"  6Xz.# E ;.h.R.;XBXeX5.d m.iXzXBXBXBX^.5.;Xk.G R [.BXkXF.6X# ",
"  6Xs.u vXBXBX6XF.[ h :   R.BXBXkXR.;XH.0 o   e 6XBXBXgXm.6XO ",
"  6Xh.5 2.=XR.R :         n [.=XM   G :     q ;XBX[.BX;Xq.7X# ",
"  eXu.h.BXBXBXBXcX+Xb.[ x     2 %         0 oXNXo.^.BXh.*.iX# ",
"  6Xu.u.BXBXBXBXfXeXBXBXBX@.              o.iXx o.BXBXK O.iXO ",
"  6Xh.# q.BXBXBXsXu.n n $.|               u : u cXBXvX$ *.iX# ",
"  6Xz.    K ;XBXBXBX=X*.A k e %             K =XBXaXo.  h.iX# ",
"  6Xz.      0 L.BXBXBXBXBXBX+Xf           f ^.kXu.0   q.BX;X# ",
"  6Xz.          R 2.m._.eX[.k                 8   % L.BXBX=X# ",
"  eXz.                  % #                     f [.BXBXBX=XO ",
"  7Xs.                                        G iXBXBXBXBX;X# ",
"  6X].O.*.O.$.*.*.O.*.O.*.O.*.*.*.*.O.*.#.O.q.BXBXBXBXBXBX6X# ",
"  I.;XiXeXeXeXeXeXeXeXeXeXeXrXeXeXeXeXeXeXeXeX-X=X=X=X=X=XR.# ",
"  #   #   # #   #   #   #     #   # #   O O O O O #   # #     "
};
