/* XPM */
static char *_474552210459[] = {
/* columns rows colors chars-per-pixel */
"16 16 136 2 ",
"   c black",
".  c gray1",
"X  c #040304",
"o  c #040404",
"O  c #060606",
"+  c #070707",
"@  c #0B0B0B",
"#  c #0C0C0C",
"$  c #111111",
"%  c #131313",
"&  c #181818",
"*  c #1E1E1E",
"=  c gray14",
"-  c #272727",
";  c #282828",
":  c gray17",
">  c #2C2C2C",
",  c #2F2F2F",
"<  c gray19",
"1  c #313131",
"2  c #353435",
"3  c gray21",
"4  c gray22",
"5  c #393939",
"6  c #3C3C3C",
"7  c gray24",
"8  c #3D3E3D",
"9  c #3F3F3F",
"0  c gray25",
"q  c #434343",
"w  c gray27",
"e  c #464646",
"r  c gray28",
"t  c #484748",
"y  c #49494A",
"u  c #4C4C4C",
"i  c #4E4E4E",
"p  c gray31",
"a  c #505050",
"s  c #515151",
"d  c gray32",
"f  c #535353",
"g  c gray33",
"h  c #575657",
"j  c #585858",
"k  c gray35",
"l  c gray36",
"z  c gray37",
"x  c #5F5F5F",
"c  c #605F60",
"v  c gray39",
"b  c #646464",
"n  c #656465",
"m  c #676767",
"M  c #686868",
"N  c #6A6A6A",
"B  c gray42",
"V  c #6C6C6C",
"C  c #6D6C6D",
"Z  c #6F6F6F",
"A  c #707170",
"S  c #737273",
"D  c gray45",
"F  c #747474",
"G  c gray46",
"H  c #767676",
"J  c #777777",
"K  c gray47",
"L  c #797979",
"P  c gray48",
"I  c #7B7A7B",
"U  c #7B7B7B",
"Y  c #7C7B7C",
"T  c #7C7C7C",
"R  c gray49",
"E  c #7E7E7E",
"W  c gray50",
"Q  c #818081",
"!  c #818181",
"~  c gray51",
"^  c #838383",
"/  c #868686",
"(  c #868687",
")  c gray54",
"_  c #8D8D8D",
"`  c #8E8E8E",
"'  c gray57",
"]  c #939393",
"[  c gray58",
"{  c #959595",
"}  c #979697",
"|  c gray60",
" . c gray61",
".. c #9C9C9D",
"X. c #A2A2A2",
"o. c gray64",
"O. c #A4A3A4",
"+. c #A7A7A7",
"@. c #A9A9A9",
"#. c #AFAEAF",
"$. c #B0B0B1",
"%. c #B2B1B2",
"&. c #B3B2B3",
"*. c gray70",
"=. c #B6B6B6",
"-. c #B7B7B7",
";. c #B8B7B8",
":. c gray74",
">. c gray75",
",. c #C1C1C1",
"<. c #C3C3C3",
"1. c #C5C4C5",
"2. c #C8C8C8",
"3. c #C9C8C9",
"4. c gray80",
"5. c #CDCDCD",
"6. c #CECECE",
"7. c #CFCECF",
"8. c #D3D2D3",
"9. c #D7D7D7",
"0. c #D8D8D8",
"q. c #DADADA",
"w. c #DBDADB",
"e. c gainsboro",
"r. c #DDDDDD",
"t. c #E0DFE0",
"y. c gray88",
"u. c #E1E0E1",
"i. c gray91",
"p. c #E9E9E9",
"a. c #ECECEC",
"s. c #EEEDEE",
"d. c #F9F9F9",
"f. c gray98",
"g. c white",
"h. c None",
/* pixels */
"h.h.h.k E K D G K C G K K K Y 3 ",
"h.h.B :.d 5 E a.q.] d 8 w 8 ~ E ",
"h.B <.>   O o._ * a.:.%     d E ",
"k <.>     : &.n   u c O     d E ",
"E B       0 ;.E             d E ",
"E l     &  .9.7.] t O       g E ",
"E v   X  .5.e.q.1.-.1       d E ",
"E l   l O.C E @.-.( D #     g E ",
"E c   8 y 5 u 1.>.&.D ~ ( K G K ",
"U n ( &.o.n 1 f.f.y.G d } g.8.D ",
"G ) u.t.Q y = n 3 %   l 1.a.#.Z ",
"J ~ 5.g.s.+._ @       k | a.B K ",
"E l   } g.e.*.v       g 5.w } E ",
"E x     = f Y :       o % o.g.G ",
"K _ 8 w 8 5 3 0 w t 0 d q.g.g.G ",
"3 ~ E E E E E E E E E ~ ~ K E 4 "
};
