/* XPM */
static char *_474552226087[] = {
/* columns rows colors chars-per-pixel */
"126 128 78 1 ",
"  c #000000",
". c #080708",
"X c #0A0A0A",
"o c #0F0F10",
"O c #100F10",
"+ c #141314",
"@ c #171618",
"# c #181718",
"$ c #1B1A1B",
"% c #1F1F20",
"& c #201F20",
"* c #242324",
"= c #282728",
"- c #2C2B2C",
"; c #312F31",
": c #343334",
"> c #383738",
", c #3C3B3C",
"< c #403E40",
"1 c #444344",
"2 c #474648",
"3 c #484748",
"4 c #4C4B4C",
"5 c #504F50",
"6 c #555455",
"7 c #575658",
"8 c #595659",
"9 c #5B5B5B",
"0 c #615F61",
"q c #646364",
"w c #686768",
"e c #6C6B6D",
"r c #676568",
"t c #6F6E70",
"y c #716E71",
"u c #757375",
"i c #797779",
"p c #7B7B7B",
"a c #817F81",
"s c #878687",
"d c #898789",
"f c #8C8C8C",
"g c #918F91",
"h c #959395",
"j c #979598",
"k c #989698",
"l c #9C9B9D",
"z c #A09FA0",
"x c #A5A3A5",
"c c #A9A7A9",
"v c #ACABAC",
"b c #B0AFB1",
"n c #B4B3B4",
"m c #B9B7B9",
"M c #BCBBBC",
"N c #BFBEC0",
"B c #C0BEC0",
"V c #C4C3C4",
"C c #C7C6C8",
"Z c #C9C6C9",
"A c #CCCBCC",
"S c #CFCED0",
"D c #D0CED0",
"F c #D4D3D4",
"G c #D7D6D8",
"H c #D9D7D9",
"J c #DCDBDC",
"K c #DFDEE0",
"L c #E0DFE0",
"P c #E1E1E2",
"I c #E8E7E8",
"U c #ECEBEC",
"Y c #F0EFF0",
"T c #F4F3F4",
"R c #F7F7F8",
"E c #F8F7F8",
"W c #FFFFFF",
"Q c None",
/* pixels */
"QQQQQQQQQQQQQQQQQQQQQQQQQQQ6                                                                                                  ",
"QQQQQQQQQQQQQQQQQQQQQQQQQQQ                                                                                                   ",
"QQQQQQQQQQQQQQQQQQQQQQQQQQ                                                                                                    ",
"QQQQQQQQQQQQQQQQQQQQQQQQQ                                                                                                     ",
"QQQQQQQQQQQQQQQQQQQQQQQQ     $9988988888888898888888888988988886888898888888888988988888888898888888888988988886888898880-    ",
"QQQQQQQQQQQQQQQQQQQQQQQ     $FWWWWWWWWWWWWWWWWWWWWWWWWWWWWWWWWWWWWWWWWWWWWWWWWWWWWWWWWWWWWWWWWWWWWWWWWWWWWWWWWWWWWWWWWWWWp    ",
"QQQQQQQQQQQQQQQQQQQQQQ     $FWWWWWWWWWWWWWWWWWWWWWWWWWWWWWWWWWWWWWWWWWWWWWWWWWWWWWWWWWWWWWWWWWWWWWWWWWWWWWWWWWWWWWWWWWWWWp    ",
"QQQQQQQQQQQQQQQQQQQQQ     +AWWWWWWWWWWWWWWWWWWWWWWWWWWWWWWWWWWWWWWWWWWWWWWWWWWWWWWWWWWWWWWWWWWWWWWWWWWWWWWWWWWWWWWWWWWWWWp    ",
"QQQQQQQQQQQQQQQQQQQQ     +CWWWWWWWWWWWWWWWWWWWWWWWWWWWWWWWWWWWWWWWWWWWWWWWWWWWWWWWWWWWWWWWWWWWWWWWWWWWWWWWWWWWWWWWWWWWWWWi    ",
"QQQQQQQQQQQQQQQQQQQ     +VWWWWWWWMsfffffffffffffffffffinWWWWWEhFWWWRMsffffffffffffffffffffffffffffffffffffsffffffffgTWWWWp    ",
"QQQQQQQQQQQQQQQQQQ     OVWWWWWWWv                     3PWWWWE8*UWWWWEu                                             .JWWWWp    ",
"QQQQQQQQQQQQQQQQQ     XMWWWWWWWn.                   XjWWWWWW6 VWWWWWWW<                                            .LWWWWi    ",
"QQQQQQQQQQQQQQQQ     XMWWWWWWWm.                   =DWWWWWWW=+UWWWWWWWFX                                           XLWWWWp    ",
"QQQQQQQQQQQQQQQ.    XnWWWWWWWMX                    <WWWWWWWWs 6WWWWWWWW,Xmcu4-X                                    .LWWWWp    ",
"QQQQQQQQQQQQQQ.    .bWWWWWWWV+                      cWWWWWWWH: 6FWWWWWYX0WWWWWIA5                                  XLWWWWi    ",
"QQQQQQQQQQQQQ.    .vWWWWWWWC+                     , -EWWWWWWWEc= 5VWWWC VWWWWWWWP$                                 .PWWWWp    ",
"QQQQQQQQQQQQ.    .cWWWWWWWA@                     =U: hWWWWWWWWWWv+ 1bWg-WWWWWWWWWc                                 XLWWWWi    ",
"QQQQQQQQQQQ      xWWWWWWWF$                      lWc $zVIEWWWEZd4X   >=lWWWWWWWWWW8                                .PWWWWp    ",
"QQQQQQQQQQ+     zWWWWWWWH%                      -RWW,   X=4uq*         GWWWWWWWWWWP$                               XJWWWWp    ",
"QQQQQQQQQ+     lWWWWWWWJ*                       xWWWn#.                MWWWWWWWWWWWn>+                             .PWWWWi    ",
"QQQQQQQQX     jWWWWWWWP=                       >EWWWWTJMje11n=         gWWWWWWWWWWWWWIMi1+.                        XJWWWWp    ",
"QQQQQQQ+     hWWWWWWWI-                        vWWWWWWWWWWWWF.         qWWWWWWWWWWWWWWWWWU1                        .PWWWWp    ",
"QQQQQQX     fWWWWWWWI:                        <WWWWWWWWWWWWWk          <WWWWWWWWWWWWWWWWA<                         .LWWWWi    ",
"QQQQQ$     fWWWWWWWU>                         =NWWWWWWWWWWWW6          &TWWWWWWWWWWWWWTi.                          XLWWWWp    ",
"QQQQ$     sWWWWWWWT,                            0IWWWWWWWWWT$           ZWWWWWWWWWWWWM=                            .LWWWWp    ",
"QQQ$     aWWWWWWWT1                              $svVGUEWWEv            XuIWWWWWWWWI0                              .LWWWWp    ",
"QQ$     pWWWWWWWT2                           X=      .+=<,$               +fTWWWWEg+                               XLWWWWp    ",
"Q*     iWWWWWWWE4                            1EMq+                          *lEWM:                                 .LWWWWi    ",
"+     uWWWWWWWW6                             qWWWUbfpw93>-6,                  >8.                                  XLWWWWp    ",
"     tWWWWWWWW7                              fWWWWWWWWWWWWWc                                                       .LWWWWp    ",
"    <WWWWWWWW0                               nWWWWWWWWWWWWWV                                                       XLWWWWi    ",
"    7WWWWWWWw                                FWWWWWWWWWWWWWJ.                                                      .PWWWWp    ",
"    6WWWWWWe                                +UWWTklnMAGIURWT#                                                      XLWWWWi    ",
"    6WWWWWf                                 :WWE5     .X+$1Y:                                                      .PWWWWp    ",
"    6WWWWW9                                 6WW6           d6                                                      XJWWWWp    ",
"    6WWWWW9                                 pW9 fMlse66eslc1*                                                      .PWWWWi    ",
"    6WWWWW0                                 cy dWWWWWWWWWWWJ*                                                      XJWWWWp    ",
"    6WWWWW9                                 - uWWWWWWWWWWWWWF$                                                     .PWWWWp    ",
"    6WWWWW9                                  qWWWWWWWWWWWWWWWF$                                                    .LWWWWi    ",
"    6WWWWW9                                 6EWWWTEWWWWWWWWWWWA+                                                   XLWWWWp    ",
"    6WWWWWq                                1TWWFu&=8fVIWRFcy9lUV+                                                  .LWWWWp    ",
"    6WWWWW9                               ,RTx>       +:*.     :*                                                  .LWWWWp    ",
"    6WWWWW9                              *nuX =cJns7-X    .=6dp>.                                                  XLWWWWp    ",
"    6WWWWW9                              XX >nWWWWWWWIZjpbLEWWWWIve:.                                              .LWWWWi    ",
"    6WWWWW9                               ,MWWWWWWWWWWWWWWWWWWWWWWWWHz9*                                           XLWWWWp    ",
"    6WWWWWq                             4VWWWWWWWWWWWWWWWWWWWWWWWWWWWWWEAf4$                                       .LWWWWp    ",
"    6WWWWW9                           5ZWWWWWWWWWWWWWWWWWWWWWWWWWWWWWWWWWWWYBp,X                                   XLWWWWi    ",
"    6WWWWW9                        .9DWWWWWWWWWWWWWWWWWWWWWWWWWWWWWWWWWWWWWWWWWFX                                  .PWWWWp    ",
"    6WWWWW9                      .0GWWWWWWWWWWWWWWWWWWWWWWWWWWWWWWWWWWWWWWWWWWWPX                                  XLWWWWi    ",
"    6WWWWW9                    .wJWWWWWWWWWWWWWWWWWWWWWWWWWWWWWWWWWWWTUWWWWWWWWF                                   .PWWWWp    ",
"    6WWWWW9                    $TWWWWWWWWWWWWWWWWELZJRWWWWWWWWWWWIMs1+#-19phVWWV                                   XJWWWWp    ",
"    6WWWWWq                     AWWWWWWWWWWYFnfw,$   $,wgMGTWIMp1+          .VWn                                   .PWWWWi    ",
"    6WWWWW9                     hWWWWIZxp8:@     -w4;+     +-O      O>1X     -Wx                                   XJWWWWp    ",
"    6WWWWW9                     8WWWd        .>sDWWWWTJVxa9,$X X:9gBIWWPz4X   qq                                   .PWWWWp    ",
"    6WWWWW9                     *RWl      X,fHWWWWWWWWWWWWWWEIDPWWWWWWWWWWIc6+                                     .LWWWWi    ",
"    6WWWWW9                      JM    X1jJWWWWWWWWWWWWWWWWWWWWWWWWWWWWWWWWWWUb9$                                  XLWWWWp    ",
"    6WWWWW9                      =o o4lPWWWWWWWWWWWWWWWWWWWWWWWWWWWWWWWWWWWWWWWWTnq&                               .LWWWWp    ",
"    6WWWWW9                      X5xIWWWWWWWWWWWWWWWWWWWWWWWWWWWWWWWWWWWWWWWWWWWWWWRNt*                            .LWWWWp    ",
"    6WWWWW9                   #9vUWWWWWWWWWWWWWUEWWWWWWWWWWWWWWWWWWWWWWWWWWWWWWWWWWWWWB                            XLWWWWp    ",
"    6WWWWWq                $0nTWWWWWWWWWWWWWFf,+=1qfnPEWWWWWWWWWWWWWWWWWWUccAIWWWWWWWWM                            .LWWWWi    ",
"    6WWWWW0               sEWWWWWWWWWWWWTVi;         .=7fMIWWWWWWWWWWWWFy#   +=4egnFTWn                            XLWWWWp    ",
"    6WWWWW9               wWWWWWWWWWWUnq*                 X:9hVIWWWWYx,             9Wc                            .LWWWWp    ",
"    6WWWWW9               *TWWWWWWPx6+                         +>wzu#                cv                            XLWWWWi    ",
"    6WWWWW9                MWWWTg<X                                        X    .    $q                            .PWWWWp    ",
"    6WWWWW9                uWWWc                 *:19ufxhq,$             :lP0  Oh=                                 XLWWWWi    ",
"    6WWWWWq                -EWW8         $>      lWWWWWWWWWTHbs9:+    X9VWWWWlX fEe                                .PWWWWp    ",
"    6WWWWW9                 AWU$         ms      $LWWWWWWWWWWWWWWUDcusPWWWWWWWF=+IWV:               $,4+           XJWWWWp    ",
"    6WWWWW9                 sWv         uWf       6WWWWWWWWWWWWWWWWWWWWWWWWWWWW6 pWWEdX       $>9fnGTWWIvq*        .PWWWWi    ",
"    6WWWWW9                 >Wq        1EWx        lWWWWWWWWWWWWWWWWWWWWWWWWWE8  @IWWWH1+,9fbFTWWWWWWWWWWWTVi:.    XJWWWWp    ",
"    6WWWWW9                 XZ*       $LWWm        $MTWWWWWWWWWWWWWWWWWWWWWWT3    aWWWWETWWWWWWWWWWWWWWWWWWWWWFj,  .PWWWWp    ",
"    6WWWWW9                  <.       nWWWZ          $4dBYWWWWWWWWWWWWWWWWWYuq-   $IWWWWWWWWWWWWWWWWWWWWWWWWWWWWU* .LWWWWi    ",
"    6WWWWW0                          sWWWWH.            .$1pmPEWWWWWWWWWWWEDPWWbO  lWWWWWWWWWWWWWWWWWWWWWWWWWWWWWh XLWWWWp    ",
"    6WWWWW9                    .$;4qjRWWWWU,+X       XuLIAnlgjbGRWWWWWWWWWWWWWWW:  xWWWWWWWWWWWYme,9hMPEWWWWWWWWWT= LWWWWp    ",
"    6WWWWW9            .+-4qscVJTWWWWWWWWWWWTPSMcji, eWWWWWWWWWWWWWWWWWWWWWWWWWW6  VWWWWWWWWGk4+       -pGWWWWWWWWj LWWWWp    ",
"    6WWWWW9     +=1qsxMHYWWWWWWWWWWWWWWWWWWWWWWWPcq= 5WWWWWWWWWWWWWWWWWWWWWWWWWWu .HWWWWYMu-.       :ucFYWWWWWWWTIR,HWWWWp    ",
"    6WWWWWq    =IWWWEWWWWWWWWWWWWWWWWWWWWWWWLcq=.    :WWWWWWWWWWWWWWWWWWWWWWWWWWj +UWFj5+          4EWWWWWWWWWWWE,>-HWWWWi    ",
"    6WWWWW9    1WWWWWWWWWWWWWWWWWWWWWWWWUnu:X        $TWWWWWWWWWWWWWWWWWWWWWWWWWM +y:.            1TWWWWWWWWWWWWWc .LWWWWp    ",
"    6WWWWW9    9WWWWWWWWWWWWWWWWWWWWTVs<X            XJWWWWWWWWWWWWWWWWWWWWWWWWWf                :IWWWWWWWWWWWWWWW1 LWWWWp    ",
"    6WWWWW9    pWWWWWWWWWWWWWWWWEAh4+                 ZWWWWWWWWWWWWWWWIjulnIWWWh                =PWWWWWWWWWWWWWWWWk LWWWWi    ",
"    6WWWWW9    kWWWWWWWWWWWWWHz9=                     iWWWWWWWWWWWWTn7X    cWWg                $FWWWWWWWWWWWWWWWWW8 PWWWWp    ",
"    6WWWWWq    *38ufxbVFIJvw-.                         mWWWWWWWWEZe$      XJWf                OZWWWWWWWWWTWWWWWWWT+ LWWWWi    ",
"    6WWWWW9         .4xzu:                             $PWWWWWWE5         >Wp                XMWWWWWWWWWnMWWWWWWWn XPWWWWp    ",
"    6WWWWW9      X5cIWWWWEJvu1#                         3TWWWWWWJ:        us                .vWWWWWWWWWa4EWWWWWWWw XJWWWWp    ",
"    6WWWWW9   X4zIWWWWWWWWWWWWTZk9-X                     #>6ujMFET5       $.                kWWWWWWWWY6XGWWWWWWWR= XPWWWWi    ",
"    6WWWWW9  >IWWWWWWWWWWWWWWWWWWWWPnp3$.                      .+><                        fWWWWWWWWA= kWWWWWWWWV  XJWWWWp    ",
"    6WWWWWq  7WWWWWWWWWWWWWWWWWWWWWWWWWTAlq:X                                             iWWWWWWWWlX 4WWWWWWWWWi  .PWWWWp    ",
"    6WWWWW9  wWWWWWWWWWWWWWWWWWWWWWWWWWWWWWWIMs5*                                        wWWWWWWWTq  +HWWWWWWWWW:  .LWWWWi    ",
"    6WWWWW9  uWWWWWWWWWWWWWWWWWWWWWWWWWWWWWWWWWWEFxe,+                                  8WWWWWWWG:   hWWWWWWWWWD   XLWWWWp    ",
"    6WWWWW0  fWWWWWWWWWWWWWWWWWWWWWWWWWWWWWWWWWWWWWWWT3                                >TWWWWWWcO   2WWWWWWWWWWd   .LWWWWp    ",
"    6WWWWW9  lWWWWWWWWWWWWWWWWWWWWWWWWWWWWWWWWWWWWWWWWu                                <WWWWWEy    OFWWWWWWWWWW,   .LWWWWp    ",
"    6WWWWW9  pWWWWWWWWWWWWWWWWWWWEEWWWWWWWWWWWWWWWWWWWj                                $YWWWP,     fWWWWWWWWWWHX   XLWWWWp    ",
"    6WWWWW9   6IWWWWWWWWWWWWWWWWWId0sbAIEWWWWWWWWWWWWWn                                 FWWn+     1WWWWWWWWWWWk    .LWWWWi    ",
"    6WWWWW0    %MWWWWWWWWWWWWWWWWWTl$  X*,9plMHUWWWWWWF                                 cWp      XDWWWWWWWWWWW4    XLWWWWp    ",
"    6WWWWW9      iEWWWWWWWWWWWWWWWWWTf+       .+-3tFWWI+                                q6       fWWWWWWWWWWWP+    .LWWWWp    ",
"    6WWWWW9       >FWWWWWWWWWWWWWWWWWWIyX          .qJW=                                        ,WWWWWWWWWWWWc     XLWWWWi    ",
"    6WWWWW9        XkWWWWWWWWWWWWWWWWWWWG6           Xu-                                       XAWWWWWWWWWWWW8     .PWWWWp    ",
"    6WWWWW9          6IWWWWWWWWWWWWWWWWWWWV,                                                   sWWWWWWWWWWWWU$     XPWWWWi    ",
"    6WWWWW9           $nWWWWWWWWWWWWWWWWWWWWc=                                               +gEWWWWWWWWWWWH6      .JWWWWp    ",
"    6WWWWW9             eTWWWWWWWWWWWWWWWWWWWTVxp9,$.                                      XuUWWWWWWWWWWWIuX       :TWWWWp    ",
"    6WWWWWq              :SWWWWWWWWWWWWWWWWWWWWWWWWTKBzp6>$.                              6GWWWWWWWWWWWTs+        4UWWWWWi    ",
"    6WWWWW9               XgWWWWWWWWWWWWWWWWWWWWWWWWWWWWWWTJMcr                         <VWWWWWWWWWWWEl&         uWWWWWWWp    ",
"    6WWWWW9                 4IWWWWWWWWWWWWWWWWWWWWWWWWWWWWWWWU1                        ,IWWWWWWWWWWWv-         XzWWWWWWWWp    ",
"    6WWWWW9                  $bWWWWWWWWWWWWWWWWWWWWWWWWWWWWWV$                          X6vTWWWWWWV,          %VWWWWWWWWWi    ",
"    6WWWWW9                    wTWWWWWWWWWWWWWWWWWWWWWWWWWWxX                              $wVEWF6           ,PWWWWWWWWWWp    ",
"    6WWWWW9                     ;AWWWWWWWWWWWWWWWWWWWWWWWWa                                   :6.           qRWWWWWWWWWWWp    ",
"    6WWWWW9                      X6ilBJTWWWWWWWWWWWWWWWWT8                                                .fWWWWWWWWWWWWWp    ",
"    6WWWWW9                           .$>6ilMHTWWWWWWWWP,                                                +nWWWWWWWWWWWWWWp    ",
"    6WWWWWq                                  .$>6ilMJEZ%                                                ;HWWWWWWWWWWWWWWWi    ",
"    6WWWWW0                                         .$X                                                6TWWWWWWWWWWWWWWWWp    ",
"    6WWWWW9                                                                                           pWWWWWWWWWWWWWWWWWWp    ",
"    6WWWWW9                                                                                         XxWWWWWWWWWWWWWWWWWWWi    ",
"    6WWWWW9                                                                                        *AWWWWWWWWWWWWWWWWWWWWp    ",
"    6WWWWW0                                                                                       1IWWWWWWWWWWWWWWWWWWWWWi    ",
"    6WWWWW9                                                                                      eWWWWWWWWWWWWWWWWWWWWWWWp    ",
"    6WWWWW9                                                                                    .jWWWWWWWWWWWWWWWWWWWWWWWWp    ",
"    6WWWWW9                                                                                   #MWWWWWWWWWWWWWWWWWWWWWWWWWi    ",
"    6WWWWW9                                                                                  >JWWWWWWWWWWWWWWWWWWWWWWWWWWp    ",
"    6WWWWW9                                                                                 8TWWWWWWWWWWWWWWWWWWWWWWWWWWWp    ",
"    6WWWWWMsfffffffffffffffffffffffffffffffffffffffffffffffffffffffffffffffffffffffffffffffxWWWWWWWWWWWWWWWWWWWWWWWWWWWWWi    ",
"    6WWWWWWWWWWWWWWWWWWWWWWWWWWWWWWWWWWWWWWWWWWWWWWWWWWWWWWWWWWWWWWWWWWWWWWWWWWWWWWWWWWWWWWWWWWWWWWWWWWWWWWWWWWWWWWWWWWWWp    ",
"    6WWWWWWWWWWWWWWWWWWWWWWWWWWWWWWWWWWWWWWWWWWWWWWWWWWWWWWWWWWWWWWWWWWWWWWWWWWWWWWWWWWWWWWWWWWWWWWWWWWWWWWWWWWWWWWWWWWWWp    ",
"    6WWWWWWWWWWWWWWWWWWWWWWWWWWWWWWWWWWWWWWWWWWWWWWWWWWWWWWWWWWWWWWWWWWWWWWWWWWWWWWWWWWWWWWWWWWWWWWWWWWWWWWWWWWWWWWWWWWWWp    ",
"    8WWWWWWWWWWWWWWWWWWWWWWWWWWWWWWWWWWWWWWWWWWWWWWWWWWWWWWWWWWWWWWWWWWWWWWWWWWWWWWWWWWWWWWWWWWWWWWWWWWWWWWWWWWWWWWWWWWWWi    ",
"    -fssfssssssssssfsssssssssfssfssssssssssfsssssssssfssfssssssssssfsssssssssfssfssssssssssfsssssssssfssfssssssssssfssssh<    ",
"                                                                                                                              ",
"                                                                                                                              ",
"                                                                                                                              ",
"                                                                                                                              "
};
