/* XPM */
static char *_494762438916[] = {
/* columns rows colors chars-per-pixel */
"32 32 142 2 ",
"   c #500071",
".  c #510071",
"X  c #510072",
"o  c #520072",
"O  c #520073",
"+  c #530073",
"@  c #530173",
"#  c #540174",
"$  c #540274",
"%  c #550375",
"&  c #550475",
"*  c #560575",
"=  c #560675",
"-  c #560476",
";  c #560576",
":  c #570576",
">  c #570676",
",  c #570776",
"<  c #570677",
"1  c #570777",
"2  c #580777",
"3  c #570877",
"4  c #580877",
"5  c #580878",
"6  c #590878",
"7  c #580978",
"8  c #5A0979",
"9  c #590A78",
"0  c #5A0B78",
"q  c #5A0A79",
"w  c #5A0B79",
"e  c #5B0B7A",
"r  c #5B0C79",
"t  c #5B0D79",
"y  c #5C0E7A",
"u  c #5C0F7A",
"i  c #5D0E7B",
"p  c #5D0F7B",
"a  c #5D0F7C",
"s  c #5E0F7C",
"d  c #5D107C",
"f  c #5E107C",
"g  c #5E117C",
"h  c #5F107D",
"j  c #5F117D",
"k  c #5E127C",
"l  c #5F127C",
"z  c #5F137D",
"x  c #5F147D",
"c  c #60127D",
"v  c #60147E",
"b  c #60157E",
"n  c #61147F",
"m  c #60167E",
"M  c #61167E",
"N  c #61167F",
"B  c #61177F",
"V  c #621680",
"C  c #631780",
"Z  c #631781",
"A  c #631880",
"S  c #631980",
"D  c #631A80",
"F  c #641881",
"G  c #641B81",
"H  c #651982",
"J  c #661B82",
"K  c #671F83",
"L  c #681E84",
"P  c #681F84",
"I  c #682184",
"U  c #692085",
"Y  c #6A2186",
"T  c #6A2286",
"R  c #6B2386",
"E  c #6B2586",
"W  c #6C2687",
"Q  c #6C2588",
"!  c #6C2788",
"~  c #6D2689",
"^  c #6E2889",
"/  c #6E2989",
"(  c #6F2A89",
")  c #6F298A",
"_  c #6F2A8A",
"`  c #6F2B8A",
"'  c #702A8A",
"]  c #702A8B",
"[  c #702B8B",
"{  c #702D8A",
"}  c #702C8B",
"|  c #712C8B",
" . c #702D8B",
".. c #712C8C",
"X. c #712D8C",
"o. c #722D8C",
"O. c #722E8C",
"+. c #722F8C",
"@. c #732E8D",
"#. c #732F8D",
"$. c #72308D",
"%. c #73308D",
"&. c #73318E",
"*. c #74308E",
"=. c #74318E",
"-. c #75328E",
";. c #75328F",
":. c #75338F",
">. c #76338F",
",. c #763390",
"<. c #763490",
"1. c #773690",
"2. c #773791",
"3. c #783691",
"4. c #783791",
"5. c #7A3A93",
"6. c #7B3C93",
"7. c #7C3C94",
"8. c #7C3D94",
"9. c #7C3D95",
"0. c #7D3E95",
"q. c #7E4096",
"w. c #7F4197",
"e. c #7F4297",
"r. c #804398",
"t. c #814598",
"y. c #814599",
"u. c #824599",
"i. c #824699",
"p. c #834799",
"a. c #81459A",
"s. c #82459A",
"d. c #82469A",
"f. c #83479A",
"g. c #83479B",
"h. c #83489B",
"j. c #84499B",
"k. c #85499B",
"l. c #854A9B",
"z. c #854A9C",
"x. c #854B9C",
"c. c #874C9D",
/* pixels */
"+ + + + + + + + + + + + + + + + + + + + + + + + + + + + + + + + ",
"+ + + + + + + + + + + + + + + + + + + + + + + + + + + + + + + + ",
"+ + + + + + + + + + + + + + + + + + + + + + + + + + + + + + + + ",
"+ + + + + + + + + + + + + + + + + + + + + + + + + + + + + + + + ",
"+ + + + + + + + + + + + @ @ @ @ + + + + + + + + + + + + + + + + ",
"+ + + + + + + + + + + + @ @ @ + + + + + + + + + + + + + + + + + ",
"+ + + + + + + + + + + + @ @ + 5 u 1 + + + + + + + + + + + + + + ",
"+ + + + + + + + + + + + + 2 B ^ :.B t + + + + + + + + + + + + + ",
"+ + + + + + + + + + + 1 x B g @.W P d B 4 + + + + + + + + + + + ",
"+ + + + + + + + + # u B 0   ^ B @ :.1 1 B x 1 + + + + + + + + + ",
"+ + + + + + + + 4 B g # + g +.  + G ^   + t B g + + + + + + + + ",
"+ + + + + + + 1 G 1 + + + &.u + + + &.d + + + g B + + + + + + + ",
"+ + + + + + + 5 x + + + G ^ + + + + g +.+ + + 1 +.g + + + + + + ",
"+ + + + + + + 4 x + + 1 :.1 + + + + + ^ S + + 1 &.>.+ + + + + + ",
"+ + + + + + + 4 x +   W G + + + + + + 4 :.$ + 1 ` l.S + + + + + ",
"+ + + + + + + 4 x + 0 &.1 + + + + + + + T T   1 ` l.8.$ + + + + ",
"O O O % O O O 5 V   ! V         + + + + # <.5 1 ` h.z.T + + + + ",
"% % O O O O O 5 V V !   V       + + + + + V ^ $ +.p.h.e.5 + + + ",
"# # O O O O O 1 V ! V           + + + + #   +.S ^ p.p.z.+.+ + + ",
"# # O O O O O O ! !   V   V V V 9 t 5 9 5 9 V <.^ h.e.p.p.g + + ",
"# # #   O O O V I  . . .!  . .! ` +.` ` +.` ` ! +.a.a.a.h.<.# + ",
"# X # # O O O O I ! V       V   X # #   # 9 G &.r.a.a.a.p.h.G   ",
"+ + + + O O O   V e.&.G V     V # # + 1 V ` q.j.a.a.a.a.p.p.q.1 ",
"+ + + + O O O     ! e.e.! V   V   # d ! 5.h.h.e.a.a.a.a.e.p.l.^ ",
"+ + + + + + + +   V &.e.e.e.2.Z V ~ w.e.e.c.c.e.a.a.a.a.a.a.p.p.",
"+ + + + + + + +     V e.e.e.e.e.&.e.e.c.e.e.e.e.a.a.a.a.a.a.e.p.",
"+ + + + + + + +        .e.e.e.e.e.e.e.e.c.e.e.z.a.a.a.a.a.a.a.p.",
"+ + + + + + + +   V   V e.e.e.c.e.e.e.c.e.e.e.z.a.a.a.a.a.a.a.e.",
"+ + + + + + + +   V     2.c.e.e.e.e.c.e.j.e.e.e.a.a.a.a.a.a.a.p.",
"+ + + + + + + +         V e.c.c.e.e.e.e.e.j.z.e.a.a.a.a.a.a.a.e.",
"+ + + + + + + +         V V e.e.e.e.c.e.e.e.a.a.a.p.e.a.e.p.p.e.",
"+ + + + + + + + V         V e.c.e.c.e.e.j.e.p.e.j.e.p.a.a.a.e.p."
};
