/* XPM */
static char *_474552221836[] = {
/* columns rows colors chars-per-pixel */
"63 64 62 1 ",
"  c #000000",
". c #080708",
"X c #0D0C0D",
"o c #100F10",
"O c #131313",
"+ c #1C1B1C",
"@ c #201F20",
"# c #242424",
"$ c #282728",
"% c #2C2C2C",
"& c #302F30",
"* c #343434",
"= c #393739",
"- c #3B3B3C",
"; c #3F3F40",
": c #403F40",
"> c #444344",
", c #484748",
"< c #4C4B4C",
"1 c #4F4E50",
"2 c #504F50",
"3 c #545354",
"4 c #585758",
"5 c #5C5C5C",
"6 c #615F61",
"7 c #646364",
"8 c #686768",
"9 c #6C6B6C",
"0 c #706F70",
"q c #747474",
"w c #787778",
"e c #7D7C7D",
"r c #7F7F80",
"t c #807F80",
"y c #848284",
"u c #888788",
"i c #8C8B8C",
"p c #908F90",
"a c #939293",
"s c #9C9B9C",
"d c #A09FA0",
"f c #A4A3A4",
"g c #AAAAAA",
"h c #B0AFB0",
"j c #B4B3B4",
"k c #B8B7B8",
"l c #BBBBBB",
"z c #BFBFC0",
"x c #C0BFC0",
"c c #C2C2C2",
"v c #C8C7C8",
"b c #CCCBCC",
"n c #D0CFD0",
"m c #D4D3D4",
"M c #DCDCDC",
"N c #E0DFE0",
"B c #E5E5E5",
"V c #ECEBEC",
"C c #F3F3F4",
"Z c #F8F7F8",
"A c #FFFFFF",
"S c None",
/* pixels */
"SSSSSSSSSSSSS7                                                 ",
"SSSSSSSSSSSSS                                                  ",
"SSSSSSSSSSSS  ,jgggggggggggggggggggggggggggggggggggggggggggje  ",
"SSSSSSSSSSS  >CAAAAAAAAAAAAAAAAAAAAAAAAAAAAAAAAAAAAAAAAAAAAAl  ",
"SSSSSSSSSS  >CAAVccccccccvlbAACMAAmlcccvcccccccccccccccccbZAl  ",
"SSSSSSSSS  -VAAV*         #vAA0gAAnX                     XBAl  ",
"SSSSSSSS  =VAAV-         +VAAA*kAAAy$2#.                 XBAl  ",
"SSSSSSS  =VAAC>          XjAAAl4aVAqkAZV4                XBAl  ",
"SSSSSS  *BAAC,          >f$mCAAb%oqqZAAAB+               XBAl  ",
"SSSSS  %BAAZ<           gA, X$*    8AAAAAgO              OBAl  ",
"SSSS  %BAAZ3           >AAZMkf6    >AAAAAACmaX           XBAl  ",
"SSS  $NAAA4            yAAAAAA>    @CAAAAAAB4            XVAl  ",
"SS. #MAAA5              3vNCAmX     iAAAAZuX             OBAl  ",
"SX #MAAA7             +q+  .O.       $gAl%               XBAl  ",
". +mAAA9              >ACbksay         $.                XBAl  ",
"  fAAAq               7AAAAAAB.                          XBAl  ",
"  fAAe                iA9>59wk#                          XBAl  ",
"  gAA*                kq-;##=5@                          XBAl  ",
"  gAA*               .=wAAAAAC<                          XBAl  ",
"  gAA*                9AZZAAAAZ3                         oVAl  ",
"  gAA*               7Mu%+>rq=;9.                        OBAl  ",
"  gAA*              .><fMge,-qgf9%.                      XBAl  ",
"  gAA*              >jAAAAAAAAAAAAMs4#                   XBAl  ",
"  gAA*            <cAAAAAAAAAAAAAAAAAZbe.                XBAl  ",
"  gAA*          4bAAAAAAAAAAAAAAAACCAAABX                oBAl  ",
"  gAA*         XBAAAACMjy79scBVvu>o.#-gM.                XBAl  ",
"  gAA*          lAd4%X.$qde5,>%.+,uu* Oe                 XBAl  ",
"  fAA*          ta  %ymAAAAAAZVBZAAAAMa>X                oBAl  ",
"  gAA*          O>iMAAAAAAAAAAAAAAAAAAAABs2.             OBAl  ",
"  gAA*       X>sMAAAAAmialNZAAAAAAAACnBZAAA6             XBAl  ",
"  gAA*       hAAAACcw%.   .#3ulBAABy# X#>5M5             XBAl  ",
"  gAA*       wAAk7#             $>X  .  . ->             XBAl  ",
"  gAA*       %Ac    Xo  *fjvlp7=O  +tMy.t$               XBAl  ",
"  gAA*        Mw    p<  XbAAAAAACmlCAAAe7A9   .+-7aa>X   oBAl  ",
"  gAA*        e*   4A4   *BAAAAAAAAAAAco mAlikMCAAAAAVg5X.BAl  ",
"  gAA*        X   $VA9    .-ykBZAAAAACk9 9AAAAAAAAAAAAAAf.BAl  ",
"  gAA*     .+&,9igBAAbyq4#+cMbbBAAAAAAAZ+3AAAAma,#,uMAAAA,MAl  ",
"  gAA* XygvMCAAAAAAAAAVg9+$AAAAAAAAAAAAA=9Akq%.  OabCAAAb7MAl  ",
"  gAA* &AAAAAAAAAABg9%.   OVAAAAAAAAAAAA<++     XcAAAAAAM#BAl  ",
"  fAA* >AAAAAAClw-X        vAAAAAZz7-aAu       .kAAAAAAAA<MAl  ",
"  gAA* .#=ecg<X            -ZAAAu@   ia        fAAAAMAAAM+BAl  ",
"  gAA* +5hVAVnfq-+          3glBfX   :        aAAAZwxAAAs BAl  ",
"  gAA%+CAAAAAAAAACva5%.        .#O           yAAAB*8AAAA< BAl  ",
"  gAA#*AAAAAAAAAAAAAAZBje>+                 qAAAlO$CAAAVO.BAl  ",
"  gAA$>AAAAAAAAAAAAAAAAAAAC*               #CAAu  xAAAAg XBAl  ",
"  gAA%ObAAAAAAAAZllBZAAAAAA4               OVC2  qAAAAA7 XBAl  ",
"  gAA* .iAAAAAAAAM7XO-4wsbAw                i%  %CAAAAC@ OBAl  ",
"  gAA*   ,BAAAAAAAAn>     70                    lAAAAAl  XBAl  ",
"  gAA*    OgAAAAAAAAAl-                        yAAAAAZ4  XBAl  ",
"  gAA*      8CAAAAAAAAZmkp9,$O               3mAAAAZs#   7AAl  ",
"  gAA*       $bAAAAAAAAAAAAAACb#           .gAAAAAk&    uAAAl  ",
"  fAA*        .uAAAAAAAAAAAAAV,             $qbAv>    OgAAAAl  ",
"  gAA*          >kmVAAAAAAAAb#                 $.    $mAAAAAl  ",
"  gAA*             O$>9ijmCgo                       <VAAAAAAl  ",
"  gAA*                    O.                       qAAAAAAAAl  ",
"  gAA*                                           .sAAAAAAAAAl  ",
"  gAA*                                          +vAAAAAAAAAAl  ",
"  gAA*                                         -BAAAAAAAAAAAl  ",
"  fAA*                                        7ZAAAAAAAAAAAAl  ",
"  gAAmcccvccccvccvcccvccvcccvccccvccccvccvcccbZAAAAAAAAAAAAAl  ",
"  gAAAAAAAAAAAAAAAAAAAAAAAAAAAAAAAAAAAAAAAAAAAAAAAAAAAAAAAAAl  ",
"  eblcccczccczlclcccczcclclclcccczccczlclccccclczxzczcxxxzzbi  ",
"                                                               ",
"                                                               "
};
