/* XPM */
static char *_b695dc1b0ba4538a20093069021165f[] = {
/* columns rows colors chars-per-pixel */
"128 128 85 1 ",
"  c #5B0071",
". c #620077",
"X c #65007A",
"o c #6B007F",
"O c #6D0081",
"+ c #720085",
"@ c #760189",
"# c #79038B",
"$ c #7C0B8D",
"% c #7D128F",
"& c #7F0B90",
"* c #7F1490",
"= c #7F1F91",
"- c #7D2A8F",
"; c #800F92",
": c #831393",
"> c #851996",
", c #881A97",
"< c #871A98",
"1 c #891F99",
"2 c #862397",
"3 c #872098",
"4 c #8B229B",
"5 c #872898",
"6 c #8D299C",
"7 c #912B9F",
"8 c #8E359D",
"9 c #8F399F",
"0 c #903A9F",
"q c #9335A1",
"w c #943CA2",
"e c #983FA7",
"r c #9542A3",
"t c #9942A7",
"y c #9C43A9",
"u c #9D4BAA",
"i c #9F50AC",
"p c #A04EAE",
"a c #A151AE",
"s c #A25EAF",
"d c #A457B0",
"f c #A659B2",
"g c #A85EB3",
"h c #AB64B6",
"j c #AE67B8",
"k c #AF6BBA",
"l c #B16DBC",
"z c #B374BE",
"x c #B578BF",
"c c #B677C0",
"v c #B779C1",
"b c #B97EC2",
"n c #BB82C5",
"m c #BF8BC8",
"M c #C18DCA",
"N c #C595CD",
"B c #C897CF",
"V c #C599CD",
"C c #C89DCF",
"Z c #CA9DD2",
"A c #CCA3D3",
"S c #CEA9D5",
"D c #D1ACD7",
"F c #D2AED9",
"G c #D5B4DB",
"H c #D8B3DE",
"J c #D7B9DD",
"K c #DABCDF",
"L c #DCBEE1",
"P c #DEC3E3",
"I c #E0C6E4",
"U c #E3CBE6",
"Y c #E4CCE8",
"T c #E7D2EB",
"R c #E9D6EC",
"E c #EBDAEE",
"W c #EEDEF0",
"Q c #EFE0F1",
"! c #F2E6F4",
"~ c #F4EBF6",
"^ c #F6EDF8",
"/ c #F7F1F8",
"( c #FAF6FB",
") c #FFFFFF",
"_ c None",
/* pixels */
"____________________________________________________________11111111____________________________________________________________",
"_________________________________________________111111111111111111111111111111_________________________________________________",
"__________________________________________11111111111111111111111111111111111131111111__________________________________________",
"_____________________________________111111111111111111111111111111111111111111111111111111_____________________________________",
"__________________________________111111111111111111111111111111111111111111111111111111111111__________________________________",
"_______________________________111311111111111111111111111111111111111111111111111111111111111111_______________________________",
"____________________________111111111111111111111111131111111111111111111111111111111111111111111111____________________________",
"__________________________1111111111111111111111111111111111111111111111111111111111111111111111111111__________________________",
"________________________11111111111111111111111111111111111111111111111111111111111111111111111111111111________________________",
"______________________111111111111111111111111111111111111411111111111111111111111111111111111111111111111______________________",
"_____________________11111111111111111111111111111111111111111111111111111111111111111111111411111111111111_____________________",
"___________________111111111111111111111111111111111111111111111111111111111111111111111111111111111111111111___________________",
"__________________11111111111111111111111111111111111111111111111111111111111111111111111111111111111111111111__________________",
"_________________1113111111111111111111111111111111111111111111111111111111111111111111111111111111131111111111_________________",
"________________111111111111111111111111111111111111111111111111111111111131111111111111111111111111111111111111________________",
"_______________11111111111111111111111111111111111111111111111111111111111111111111111111111111111111111111111111_______________",
"______________1111111131111111111111111111111111111111111111114>,4111111111111111111111111111111111111111111111111______________",
"_____________1111111111111111111111111111111111111111111111341#$$#4311111111111111111111111111111111111111111111111_____________",
"____________111111111111111111111111111111111111111111111134;O8PI8O&631111111111111111111111111111111111111111111111____________",
"___________11111111111111111111111111111111111111111111144>O:M))))M*+,41111111111111111111111111111111111111111111111___________",
"___________1141111111111111111111111111111111111111111111+@h!))))))!h@+1411111111111111111111111111111111111111111111___________",
"__________111111111111111111111111111111111111111111144$+tI))))))))))ItO$441111111111111111111111111111111111111111111__________",
"_________11111111111111111111111111111111111111111114;o5S))))))))))))))S5o;44111111111111111111111111111111111111311111_________",
"_________111111111111111111111111111111111111111114>+%n))))))))))))))))))b%+,411111111111111113111111111111111111111111_________",
"________111111111111111111111111111111111111111144@+dW))))))))))))))))))))Wf++441111111111111111111111111111111111111111________",
"________1111111111111111111111311111111111111114$orK))))))))))))))))))))))))K0o$4411111111111111111111111111111111111111________",
"_______111111111111111111111111111111111111116;o1A))))))))W())))))))(Q))))))))A2o:411114111111111111111111111111111111111_______",
"_______1111111111111111111111111111111111114,+$z())))))))sl)))))))))(zs))))))))(x#+14113111111111111111111111111111111111_______",
"______1111111111111111111111111111111114144#+aE))))))))F-o~))))AA))))~o-F))))))))Ra+@3431111111111111111111111111111111111______",
"______11111111113111111111111111111111134$o0G))))))))Yu+ H)))))%$)))))H OuY))))))))G0o$44111111111111111111111111111111111______",
"______111111111111111111111111111111114:o>V))))))))~j#++y)))))BoOZ)))))y+@@l^))))))))V>o>411111111111111111111111111111111______",
"_____111111111111111111111111111111141+@k^))))))))V>o:1+T))))(:;*:/))))T@1:o>V))))))))^k#+,41111111111111111111111411111111_____",
"_____1111111111111111111111111111444@OuY))))))))G9o;44Ol)))))zo44Ol)))))lO64;O9G))))))))Yuo@4311111111111111111111111111111_____",
"_____11111111111111111111111111134;O8F))))))))Ri+#444;$/))))E@:43:@E))))/$;343@+aR))))))))F8O;41111111111111111111111111111_____",
"____1111111111111111111111111134>O%M))))))))(x#O,4434oN)))))y+6136+u)))))No4114,+#z())))))))M:O>4114111111111111111111111111____",
"____111111111111111111111111144+@hQ))))))))A2O:41114#6)))))K+111111OK)))))6#41114:o2A))))))))!h@@133111111111111111111111111____",
"____1111111111111111111111344$OtP))))))))Kw+$4311111OK)))))5#411114#5)))))Ko1111344$orK))))))))PtO$4411111111111111111111111____",
"____11111111311111111111114;O5A))))))))Wf+@14111114+u)))))No43111114oN)))))p+41133144@+fW))))))))S5o;44111111111111111111111____",
"___1111111111111111111114<O$b)))))))))n$O,41111113:@W))))^$;43111114;$/))))E@:41111114>+$n)))))))))x$+,4411111111111111111111___",
"___111111111111111111114#@dW))))))))S5o;4311111134Oz)))))jo4111111114oj)))))xO4111111116;o5S))))))))Wd+#411111111111111111111___",
"___11111111111111111111;wK))))))))Ir+#44341111113$:())))T+>1111111114,+T))))(;$41111111134$+tI))))))))Kw;11111111111113111111___",
"___1111111111111111111>#W)))))))!h@@1411111111114oA)))))e@411111111114+e)))))Zo4111111111111+@h!)))))))W$>1111111111111111111___",
"__11111111111111111111>&T))))))m*O>4111111111114@q)))))Fo11111111111111OF)))))q@4111111111114<O:M))))))T;>11111111111111111111__",
"__11111111111111111111>;Y))))J8O;41111111111143,OP)))))1#41111111111113$2)))))PO,41111111111334;o8J))))Y&>11111111111111111111__",
"__11111111111111111111>&Y))))5o4411111111111114+d)))))no4411111111111114on)))))d+4111111111111144X5))))Y&>11111111111111111111__",
"__11111141111111111111>&Y))))e#311111114111114:#!))))~$;4311111111111114;$~))))!$;411111111111114#e))))Y;:11111111111111111111__",
"__11111111111111111111>&Y))))e#411111111111133on)))))f+411114111111111114+f)))))bo411111111111113#t))))Y;:,1111111111111111111__",
"__11111111111111111111>&Y))))t#31111111111134$1())))I+,311111111111111113>OI))))(1$41111111111114#e))))Y;:11111111111111111111__",
"__11111111111111111411>;Y))))t#11111111111111OS)))))q@41111111111111111114@q)))))SO11111111111111#t))))U;>11111111111111111111__",
"_111111111111111111111:;Y))))t#4111111111114@e)))))Ao4111111111111111111114OA)))))w@4111111111113#e))))U;,111111111111111111111_",
"_111111111111111111111>;Y))))t#311111111113>+U))))(>$4111111111111111111114&>())))U+<341111111114#t))))U&:111111111111111111111_",
"_11111111111111111111,:;Y))))t#111111111434Oh)))))xo411111111111111111111144ov)))))hO411111111111#t))))U;:111111111111141111111_",
"_111111111111111111111>;Y))))e#41111111134;$^))))Q#:411111111111111111111113:@!))))^$;43111111113#t))))U;:,11111111111111111111_",
"_111111111111111111111:;Y))))t#31111111134OM)))))a+41111111111111111111111114+a)))))MO43111111114#e))))U;:111111111111111111111_",
"_111111111111111111111:;U))))t#1111111114#4)))))LO1111111111111111111111111111oP)))))3#4111111111#t))))U;>111111111111111111111_",
"_111111111111111111111:;U))))t#4111111111oG)))))6@4111111111111111111111111114@6)))))Go1111111113#t))))U;,111111111111111111111_",
"_111111111111111111111,;I))))t#311111114+t)))))Bo411111111111111111111111111114OB)))))t+611111114#t))))U;:,11111111111111111111_",
"_111111111111111111111,;Y))))t#11111111>@R))))/*%411111111111111111111111111114$;/))))R@>31111111#t))))U;>111111111111111111111_",
"_111111111111111111111:;U))))e#41111114Ol)))))lO41111111111111111111111111111136ol)))))lO41111113#t))))Y;:111111111111111111111_",
"_11111111111311111111,:;U))))t#3111114;%/))))R@>41111111111111111111111111111111>+R))))/;;4111114#e))))Y;>111111111111111111111_",
"1111111111111111111111:;U))))t#1111114oB)))))y+4111111111111111111111111111111116@y)))))NO4311111#t))))Y&:,111111111111111111111",
"1111111111111111111111:;U))))t#411114#6)))))JO141111111111111111111111111111111111OK)))))6#411113#t))))Y;>1111111111111111111111",
"1113111111111111111111,;U))))e#311111oK)))))4#431111111111111113111111111111111134#4)))))KO111114#t))))Y&>1111111111111113111111",
"1111111111111111111111:;U))))t#11114+p)))))Mo43311111111111111111111111111111111334oM)))))p+41111#t))))Y;<1111111111111111111111",
"1111111111111111111111:$U))))e#4143:@W))))^$;11111111111111111111111111111111111114&%/))))W@>1111#t))))U;:,111111111111111111111",
"111111111111111111111,,;Y))))t#3134ox)))))hO4111111111111111111111111111111111111114Oh)))))cO4111#t))))Y;:1111111111111111111111",
"1111111111111111111111:;Y))))t#114$:())))Y+>1111111111111111111111111111111111111114>OT))))(>$313#t))))U;:1111111111111111111111",
"1111111111111111111111>;Y))))t#414oA)))))w@711111111111111111111111111111111111111114@e)))))AO414#e))))Y;>1111111111111111111111",
"_111111111111111111111>&U))))t#34@q)))))Fo11111111111111111111111111111111111111111111OD)))))q+41#t))))Y&:111111111111111111111_",
"_111111111111111111111>&Y))))t#1,+I)))))1$31111111111111111111111111111111111111111113$1())))PO13#t))))Y;>111111111111111111111_",
"_111111111111111111111>&Y))))t#6Of)))))nO4311111111111111111111111111111111111111111114On)))))fO6#t))))Y&>111111111111111111111_",
"_111111111111111111111>&Y))))t#:#~))))!$;4111111111111111111111111111111111111111111111:$!))))~#:#t))))Y&>111111111111111111111_",
"_111111111111111111111>;Y))))t#On)))))fO711111111111411111111111111111111111111111111114Of)))))nO#t))))Y&>111111111111111111111_",
"_111111111111111111111:;Y))))yo3)))))PO,111111111111111111111111111111111111111111111114,OP)))))1oy))))Y&>111111111111111111111_",
"_11111111111111111111,>;Y))))t F)))))q@41111111111111111111111111111111111111111111111114@q)))))F y))))Y&>111111111111111111111_",
"_11111111111111111111,:;Y))))>2)))))AO4111111111111111111111111111111111111111111111111114oZ)))))2>))))Y&>111111111111411111111_",
"_111111111111111111111,;Y)))(2F))))(:$3311111111111111111111111111111111111111111111111114&:())))F>))))Y&>111111111111111111111_",
"_111111111111111111111:;Y)))~M)))))vO443111111111111111111111111111111111111111111111111114Ox)))))M!)))U&>111111111111111111111_",
"_11111111111111111111,>;U)))))))))W@:111111111111111111111111111111111111111111111111111113:@W)))))))))U&>,11111111111111111111_",
"__1111111111111111111,:;U)))))))))p@41411411411411411411114114111414111411411414114114114146+p)))))))))U&>11111111111111111111__",
"__14111111111111111111>;U))))))))S.&;&&;&&&&&&&&;&&;&&&&&&&&;&&;;;&&&&&&;&&;&&&&&&&&&;&&;$;;;.S))))))))Y&>11111111111111111111__",
"__11111111111111111111;;U)))))))(q%7664664746664664664746664664674746664664664744666467466467%q()))))))Y&>11111111111111111111__",
"__11111111111111111111>;U)))))))(!(((((()((((()((((()((((()((((((((((()((((()((()(((((((((((((!()))))))Y&>11111111111111111111__",
"__11111111111111111111>;U))))))))))))))))))))))))))))))))))))))))))))))))))))))))))))))))))))))))))))))Y&>11111111111111111111__",
"__11111111111111111111>;U))))))))))))))))))))))))))))))))))))))))))))))))))))))))))))))))))))))))))))))U&>11111111111111111111__",
"__1111111111111111111,>;T))))))))))))))))))))))))))))))))))))))))))))))))))))))))))))))))))))))))))))))Y&>11111111111111111111__",
"___1111111111111111111>$W)))))))))QU/)/(((((((((((((/(((((((((((((((((((((((/(((((((((((((((UW)))))))))W&>1111111111111111111___",
"___11111111411111111113;wL))))))))Ru+%7464466464664474444646464664466464466474646446646467$+uR))))))))Lw&11111111111111111111___",
"___111111111111111111114@+dW))))))))V>.@;;;;;;;;;;;;;;;;;;;;;;;;$;$;;;;;;;;;;;&;$;$;;&;;@.>V))))))))Wd+@441111111111111111111___",
"___1111111111111111111114,+$b)))))))))n%+,44,11>14,11>111111,111441111,1,1,,14,1441134>+%n)))))))))n$O,4111111111111111111111___",
"____11111111111111111111114;o5S))))))))Qf++1411111111111,111,111111111111111111111111@+gQ))))))))S5O;63311111111111141111111____",
"____1111111111111111111111144$otP))))))))Pro#41111111111111111111111111111111111114#OrP))))))))ItO#4411111111111111111111111____",
"____111111111111111111111111141@+h!))))))))A4O;4311111111111111111111111111111136:O5A))))))))!h@@141111111111111111111111111____",
"____1111111111111111111111111114>o%m)))))))))b$+>41111111111111111111111111,114,+;v)))))))))M%o>4111111111111111111111111111____",
"_____11111111111111111111111111116;o8F))))))))Wd+@1111111111111111111111111441@+dE))))))))F8o;44111111111111111111111111111_____",
"_____1111111111111111111111111111134#OuY))))))))Kw+;4111111111111111111111,4;+wK))))))))Yuo#4111111111111111111111111111111_____",
"_____111111111111111111111111111111141+#l^))))))))A2o;43411111111111111114;o2A))))))))^l@@,41111111111111111111111111111111_____",
"______111111111111111111111111111111114>O>V))))))))(x$+143111111111111141+$x())))))))V>O:611111111111111111111111111111111______",
"______11111411111111111111111111111111116$o9G))))))))Ea+#33111111111143#+aR))))))))G0o;41111111111111111111111111111111111______",
"______1111111111111111111111111111111111143@+pR))))))))Jqo$4411111144$o0J))))))))Ri+@4411111111111111111111111111111311111______",
"_______1111111111111111111111111111111111114,+$x())))))))C>o:443114:o>A))))))))(x$+,4311111111111111111113111111111111111_______",
"_______111111111111111111111111111111111111114:O2A))))))))(z#+,34,+#z/))))))))A2o;411111111111111111111111111111111111111_______",
"________1111111111111111111111111111111111111144$orK))))))))Ri+##+iT))))))))KrO$4133111111111111111111111111111111111111________",
"________111111111111111111111111111111111111111141@+fW))))))))G25G))))))))Wf+#141114111111111111111111111111111111111111________",
"_________111111111111111111111111111111111111111114>+$n))))))))))))))))))n%+>411111111111111111111111111111111111111111_________",
"_________11111111111111111111111111111111111111111134;O8S))))))))))))))S5O;43311111111111111111111111111111111111111111_________",
"__________111111111111111111111111111111111111111111114$otP))))))))))Pto#441411111111111111111111111111111111111111111__________",
"___________1111111111111111111111111111111111111111111143+@h!))))))!h@@1411111111111111111111111111111111111111111111___________",
"___________11111111111111111111111111111111111141111111134>O:M))))N;o>43111111111111111111111111111111111111111111111___________",
"____________111111111111111111111111111111111111111111111444;oqLP8o;444311111111111111111111111111111111111111111111____________",
"_____________1111111111111111111111111111111111111111111111134#;$#4111111111141111111111111111111111111111111111111_____________",
"______________1111111111111111111111111111111111111111111111314>>4111111111111111111111111111111111111111111111111______________",
"_______________11111111111111111111111111111111111111111111111111111111111111111111111111111111111111111111111111_______________",
"________________111111111111111111111111111111111111111111111111111111111111111111111111111111111111111111111111________________",
"_________________1131111111111111111111111111111111111113111111111111111111111111111111111111111111111111411111_________________",
"__________________11111111111111111131111111111111111111111111111111111111111111111111111111111411111111111111__________________",
"___________________111111111111111111111111111111111111111111111111111111111111111111111111111111111111111111___________________",
"_____________________11141111111111111111111111111111111111111111111111111111111111111111111111111111111111_____________________",
"______________________111111111111111111111111111111111111111111111111111111111131111111111111111111111111______________________",
"________________________11111111111111111111111111111111111111111111111111111111111111111111111111111111________________________",
"__________________________1111111111111111111111111111111111111111111111111111111111111111111111111111__________________________",
"____________________________111111111111111111111111111111111111111111111111111111111111111111111111____________________________",
"_______________________________111111111111111111111111111111111111111111111111111111111111113111_______________________________",
"__________________________________111111111111111311111111111111111111111111111111111111111111__________________________________",
"_____________________________________111141111111111111111111111111111111111111111111111111_____________________________________",
"__________________________________________11111111111111111111111111111111111111111111__________________________________________",
"_________________________________________________111111111111111111111111111111_________________________________________________",
"____________________________________________________________31111111____________________________________________________________"
};
