/* XPM */
static char *ea6c222805ea4f8beb48da5aecf1e488[] = {
/* columns rows colors chars-per-pixel */
"32 32 190 2 ",
"   c #53006B",
".  c #590070",
"X  c #5B0071",
"o  c #610076",
"O  c #620077",
"+  c #67007C",
"@  c #68007C",
"#  c #68007D",
"$  c #69007D",
"%  c #69007E",
"&  c #6A007F",
"*  c #6B007F",
"=  c #6C0080",
"-  c #6D0080",
";  c #6C0081",
":  c #6D0081",
">  c #6E0081",
",  c #6E0082",
"<  c #6F0082",
"1  c #700083",
"2  c #710083",
"3  c #710085",
"4  c #720085",
"5  c #730086",
"6  c #760088",
"7  c #760089",
"8  c #770089",
"9  c #770189",
"0  c #77038A",
"q  c #760588",
"w  c #78008A",
"e  c #79008B",
"r  c #78028B",
"t  c #78048A",
"y  c #7B078D",
"u  c #760989",
"i  c #7C0A8E",
"p  c #7A108C",
"a  c #7C108D",
"s  c #7C148E",
"d  c #7D148E",
"f  c #7E178F",
"g  c #7E0B90",
"h  c #7F0B90",
"j  c #7F0B91",
"k  c #7E0C90",
"l  c #7F0E91",
"z  c #79288B",
"x  c #800E91",
"c  c #810E91",
"v  c #800F92",
"b  c #801092",
"n  c #811092",
"m  c #821193",
"M  c #821293",
"N  c #831293",
"B  c #821194",
"V  c #841595",
"C  c #851496",
"Z  c #851596",
"A  c #871697",
"S  c #801B91",
"D  c #871A97",
"F  c #871898",
"G  c #871B98",
"H  c #881898",
"J  c #881E99",
"K  c #891E99",
"L  c #891F99",
"P  c #8A1C9A",
"I  c #8C1F9B",
"U  c #822293",
"Y  c #832494",
"T  c #872597",
"R  c #892099",
"E  c #8A2099",
"W  c #8A209A",
"Q  c #8A219A",
"!  c #8B219A",
"~  c #8B209B",
"^  c #8B239B",
"/  c #8C229B",
"(  c #8C209C",
")  c #8D229D",
"_  c #8D239D",
"`  c #8E239D",
"'  c #8E219E",
"]  c #8C249C",
"[  c #8D249C",
"{  c #8D249D",
"}  c #8E249D",
"|  c #8E269D",
" . c #8B359B",
".. c #8B369B",
"X. c #8B359C",
"o. c #8A399A",
"O. c #8C399C",
"+. c #8E3E9D",
"@. c #8F3E9E",
"#. c #903E9E",
"$. c #943EA2",
"%. c #8E469D",
"&. c #8E479D",
"*. c #9B4BA9",
"=. c #9F4FAC",
"-. c #9951A6",
";. c #9852A6",
":. c #9E57AB",
">. c #9E57AC",
",. c #9F5BAC",
"<. c #A555B1",
"1. c #A559B1",
"2. c #A55AB1",
"3. c #A961B5",
"4. c #AA66B6",
"5. c #AA67B6",
"6. c #AB6CB7",
"7. c #AB6DB7",
"8. c #AF6CBA",
"9. c #AF6FBA",
"0. c #AB76B7",
"q. c #B271BC",
"w. c #B378BD",
"e. c #B67DC0",
"r. c #B67EC0",
"t. c #B785C1",
"y. c #BA89C3",
"u. c #BE91C6",
"i. c #C28FC9",
"p. c #C290CA",
"a. c #C291CA",
"s. c #C397CC",
"d. c #C79ECF",
"f. c #C89DD0",
"g. c #C99FD1",
"h. c #C8A1CF",
"j. c #CBA4D2",
"k. c #CBA4D3",
"l. c #CBA9D2",
"z. c #CCAAD3",
"x. c #CFA9D6",
"c. c #D0A5D6",
"v. c #D0A5D7",
"b. c #D2ABD8",
"n. c #D5AADA",
"m. c #D5AADB",
"M. c #CEB1D4",
"N. c #D3B6D9",
"B. c #D7BADC",
"V. c #D8BDDE",
"C. c #D8BDDF",
"Z. c #DCC9E0",
"A. c #DCC9E1",
"S. c #E0CFE4",
"D. c #E2CEE5",
"F. c #E2CEE6",
"G. c #E1D2E5",
"H. c #E2D2E5",
"J. c #E8D6EB",
"K. c #E8D6EC",
"L. c #EDD9EF",
"P. c #EDDAEF",
"I. c #EBDDEE",
"U. c #ECDDEE",
"Y. c #EDDFEF",
"T. c #ECE2EF",
"R. c #ECE3EF",
"E. c #EDE0F0",
"W. c #F0E1F2",
"Q. c #F1E8F3",
"!. c #F2E8F3",
"~. c #F3EAF5",
"^. c #F6F0F7",
"/. c #F6F2F6",
"(. c #F6F2F7",
"). c #F6F3F7",
"_. c #F6F0F8",
"`. c #FAF3FA",
"'. c #FAF4FB",
"]. c #FBF5FB",
"[. c #FBF5FC",
"{. c #FBF6FC",
"}. c #FEF7FE",
"|. c #F7F8F8",
" X c #FCF8FD",
".X c #FDF9FD",
"XX c #FDFCFD",
"oX c #FEFFFE",
"OX c gray100",
"+X c None",
/* pixels */
"+X+X+X+X+X+X+X+X+X+X+XL L L L L L L L L L +X+X+X+X+X+X+X+X+X+X+X",
"+X+X+X+X+X+X+XL L L L L L L L L L L L L L L L L L +X+X+X+X+X+X+X",
"+X+X+X+X+XL L L L L L L L L L Q Q L L L L L L L L L L +X+X+X+X+X",
"+X+X+X+XL L L L L L L L L Q ) e e I Q L L L L L L L L L +X+X+X+X",
"+X+X+XL L L L L L L L Q ) l > =.=.$ l ) Q L L L L L L L L +X+X+X",
"+X+XL L L L L L L L ) Z $ Y z.oXoXz.Y > Z ) L Q L L L L L L +X+X",
"+X+XL L L L L L [ L 5 q y.oX~.oXoX~.oXy.q 2 L ) L L L L L L +X+X",
"+XL L L L L Q ) 7 = :.^.}.%.M.b.b.M.%..X^.:.> 7 ) Q L L L L L +X",
"+XL L L L ] l = +.G.oXd.O ..oXp a oX..O f.oXG.#.$ c ^ L L L L +X",
"+XL L L Q M s h.oXA.X.+ > oXx.> > x.oX> + X.A.oXh.s M Q L L L +X",
"+XL L Q V l E.|.-.> j > i.oXp M M p oXi.> x > ;.|.E.c V Q L L +X",
"L L L L M ^ oX,.O ) l S oXe.* [ [ = e.oXS c ) O ,.oX[ M L L L L ",
"L L L L M L `.3.7 ) $ C.^.> H Q Q Z > _.C.$ ) 7 3.`.L M Q L L L ",
"L L L Q M L `.4.e 7 $.oX*.5 [ L L [ 5 *.oX$.7 e 4.`.L M L L L L ",
"L L L L M L `.4.7 > Q.F.$ ) L L L L ) $ F.Q.> 7 4.`.L M Q L L L ",
"L L L Q M L `.8.X 9.oXT y Q L L L Q Q y T oX9.X 9.'.L M J L L L ",
"L L L R M L }.<.O oXd.$ ) L L L L L L ) $ f.oXO <.}.L M L L L L ",
"L L L J M J }.o.w.oXu M Q L L L L L L Q M u oXw.o.}.L M Q J L L ",
"L L L Q M Q P.0.oXq.> [ Q Q Q Q Q R Q Q [ > q.oX0.L.Q M Q L L L ",
"L L J Q M G K.'.k.  1 5 2 5 5 5 5 5 5 5 5 5   k.'.K.G M J L L L ",
"L L L Q M F  XoXf.a.m.v.v.v.v.c.c.c.v.v.v.n.i.f.oX|.F M Q L L L ",
"+XL J Q Z c J.oXoXB.A.W.T.I.Y.I.I.I.I.Y.W.A.B.oXoXJ.l Z R J L +X",
"+XL L L Q M f u.XXz.z X 5 i t t 7 t i 2 . z z.oXu.f M Q L L L +X",
"+XL L L L [ c $ o.F.oXs.p > A Q Q F > p s.oXS.O.= c [ L L L L +X",
"+XL L L L L Q ) e = :.^.oX7.2 7 7 > 6.oX^.:.= e ) Q L L L L L +X",
"+X+XL L L L L L [ L 5 q t.oXE.+.+.E.oXt.q 5 L [ L L L L L L +X+X",
"+X+XL L L L L L L L ) C = U N.oXoXN.U = Z [ L L L L L L L L +X+X",
"+X+X+XL L L L L L L L Q [ j $ 2.2.> l [ Q L L L L L L L L +X+X+X",
"+X+X+X+XL L L L L L L L L Q ) e 7 ) Q L L L L L L L L L +X+X+X+X",
"+X+X+X+X+XL L L L L L L L L L Q Q L L L L L L L L L L +X+X+X+X+X",
"+X+X+X+X+X+X+XL L L L L L L L L L L L L L L L L L +X+X+X+X+X+X+X",
"+X+X+X+X+X+X+X+X+X+X+XL L L L L L L L L L +X+X+X+X+X+X+X+X+X+X+X"
};
