/* XPM */
static char *c862c2cce420458bb481fd2922127e4d[] = {
/* columns rows colors chars-per-pixel */
"128 128 26 1 ",
"  c #4F0070",
". c #530073",
"X c #580777",
"o c #570876",
"O c #580877",
"+ c #5A0C79",
"@ c #5E117C",
"# c #61157E",
"$ c #62187F",
"% c #631780",
"& c #641C81",
"* c #681F84",
"= c #672183",
"- c #6A2485",
"; c #6C2987",
": c #6D2688",
"> c #6E2C89",
", c #712D8B",
"< c #75328E",
"1 c #773690",
"2 c #783791",
"3 c #7B3B93",
"4 c #7F4196",
"5 c #804397",
"6 c #814598",
"7 c #84499A",
/* pixels */
"................................................................................................................................",
"........................................X.....................................X...............X.................................",
"................................................................................................................................",
"..................................................................................................................X.............",
"................................................................................................................................",
".....................X..........................................................................................................",
"................................................................................................................................",
"...........................................................X....................................................................",
"..........................................................................................................X..................X..",
"................................................................................................................................",
"..................................................X.............................................................................",
".....................................................................X...............X..........................................",
"................................................................................................................................",
"................................................................................................................................",
"...............................X................................................................................................",
"...........................................X....................................................................................",
"................................................................................................................................",
"................................................................................................................................",
"................................................................................................................................",
".......................X........................................................................................................",
"................................................................................................X...............................",
"................................................................................................................................",
"................................................................................................................................",
"...................................................................................................................X............",
"...............X................................................................................................................",
"................................................................+X.......................................X......................",
"..............................................................o&;-@. ...........................................................",
".X......................................................... .&>>>,,=+...........................................................",
"...........................................................@;>,=+&;>>&o ........................................................",
"..........................X..............................+=>>;+@<=+=>>;%....................................................X...",
".......................................................o&;>>&O,7773#+;>>;+ .....................................................",
"......................................................#;>>-+ ;773477+.%;>>-+....................................................",
".................................................. .+;>>-#. +774+>77< .+$;>>$o..................................................",
"..........X.......................................+=>>;%. ..<77: X777# .o@=>>;#.................................................",
"........................................X........&;>>=O ...&774O. =773.....#;>>=@  .............................................",
"...............................................%;>>-+ .....377= ...377* ... O$;>;=+. ...........................................",
"........................................... .+->;;@...... ;772.... $755o .....O=>>;#. ..........................................",
"...........................................O&>>>&X.......+477# .....<77> .......@->>>@............X.............................",
".........................................o$;>>=O........ ,77<.......@757+.........#>,>=+........................................",
"........................................@->>-@. ....... +774+........>771......... o$>>>$O......................................",
".................................... .+=>>;@o ..........177:.........+477#...........+=>>;#. ...................................",
".......X............................O&>>;&o........... &774.......... *773........... .@->>;@. .................................",
"..................................o@;>>=+..............477&............377=.............o#>,>=+.......................X.........",
"............................... .@->>-@. .............;772............ #775X..............O$>>>$X...............................",
"...............................o=>>;#o ..............+447# .............<77> .............. +=>>:@..............................",
"...............................@>>&o................ 177,...............+775@.................#-,=..............................",
".............................. @>;o ............... @774+................;771................. #,=+.............................",
"...............................@>-..................177-................ o577$ ................#,&;& ...........................",
"...............................+>-X................&773...................*773X................#,&:6............................",
".............................. @>;.................477= ...................357: .............. #,&-7= ..........................",
"...............................+>-o.............. :772.................... #775+ ............. #>&=74O..........................",
"..........X....................@>; ..............+677+......................,77>...............#>&;77:.........................X",
"...............................+>-...............177,...................... +677# .............#>&-476+.........................",
"...............................@>-X............ #774O....................... :772..............#>&-7671.........................",
"...............................+>;X.............277- ........................o377* ............#>&-7667&........................",
".............................. @>-.............=773...........................&773X............#>&-76673 .......................",
"...............................@>-X ..........o474&............................277: .......... #>=-74667;.......................",
"...............................+>;............>771............................ #775+...........#>&-766674O......................",
"...............................+>;X..........+667+ .............................>77<...........$>&-766667,......................",
"...............................@>;...........177: ..............................+567# .........$>==7664677+.......X.............",
"...............................@>;..........%774O............................... -773..........$>&-76666672.....................",
"...X...........................@>-o........o367=..................................377* ........$>&-76666667=....................",
"...............................+>-.........-772...................................$774X........$>&-766666673X...................",
".......................X.......#>;........O477#....................................<77;........$>$-766666667:...................",
".............................. @>-........<77< ....................................@665@...... $>$-7666666666@ o................",
".............................. @>-X..... @675+..................................... ,77<.......$<$-7666566667<. ................",
"....X..........................@>;X......167> ......................................X577# .....$>=-76666666657# ................",
".............................. @>-..... $764X....................................... =773......$>$-766666666573 ................",
"...............................@>-o ...o467$..........................................377= ... $,$*766666665666- ...............",
".............................. @>;.... -773X..........................................#775O....$,$-7666666666665O...............",
".............................. @>-o...+566# .......................................... <77,....$,&-7666666666667, ..............",
"...............................@>;....,77<.............................................@575@ ..$>&*76666666666576@ .............",
"...............................@>-o. #576+............................................. >771...$>&-766666666666671..............",
".............................. @>;...277- ..............................................X567$ .$,&-766666666666667$.............",
"...............................+>-o $755X............................................... $763X $>&-7666657655666663X............",
"...............................@>;.o577$ ................................................X377- #>$-7566655576666667- ...........",
"...............................@>:.=771...................................................#755O#>&-75566666666666665X...........",
"...............................+>=#777@....................................................<77>#>&-76566666666666667,...........",
"...............................@>==77> ..  .. ...........  .. ... .. ..  ........ ........ O57<#>&-766666566666666667@..........",
"...............................@>=$75#OO+X++O+O+Oo+X+X+++X++O+OO+X+++X+X+++X+X+++OOOOOOOOO+O<7<$>=-7666657566666666673..........",
"...............................@>=*75555555555555555555555555555555555555555555555555555555557<$>=-7666666666566666667$ ........",
"...............................@>:+,7777777777777777777777776777777777777757777757777757776773#$>$*76666666666666666665X........",
"...............................#>>:@#1333333332333333333331333332333332333333333333333333333$#$>>$=76665666666666666667: .......",
"................................@->>=+.  ................................................. o$>,;##2766666666666666666666+.......",
"................................+$#:>;=+ .................................................$;>>$@-57666666666666666666667<.......",
"....X...........................o3,#$>>>$O..............................................@->>=#$37666666666656666666666667# .....",
"................................ #75-@$>>;#...........................................+=;>-##17666666666666666666666666572o.....",
"................................. ,773$#=>>=+...................................... o$>>;##,666666666666666666666666666667$.....",
"..................................+5677<$#;>>=O  ..................................#;>>$@-576666666666665666576666666566675X....",
".................................. -76575;@$>>;$o ...............................@->>=@$37666666656666665766556566666666667> ...",
"...................................O4666774=@=>>;@............................ +=>>;##<7666666666666666665667755566666666666@ ..",
"................................... $76657571$#->,=+. ...................... o#>>;$@;576666666666666566666665557666666666667<...",
".....................................275555777<@$;>>$O. .................. .#;>>=+=575666666666666666666666666666666666666667$..",
".....................................@7577555575;@$>>;#o..................@=>>=@$277656666666666666666666666666666666666666672o.",
"..................................... ,75575555773$@=,>-@...............O$>,;##,7756666666666666566666666666666666666666666667* ",
"..............X.......................O5575577557772##->>=+ ..........o#;>>$@-5755666666666666666666666666566665666656666656675O",
"........................X............. -7666666666676,##;>;$+ ...o   @;;>=@=476666666666666666666666666666666666666666666666667,",
"........................................376666666666675-@=>>-#. .  +=>;;@$176666666666666666656666666666666666666666666666666666",
"........................................$7666666666666673$@->>-@ o=;>;$@>6764666666666666666666666666665666666665666666666566666",
".........................................17666666666666677<##;>>=;>;=@=676666666666466665666666666666666656666656666566666666666",
".........................................@566666556665756675>@#>>>=@=37666666666666666666666666666566666666666666666656666666666",
"......................................... ,7666677566656666774-@=##,666666666666666665666666666666666666666666566666666666666666",
"..X.......................................X466665566667566665773$>67666666666666666666666666666666666666666666666666666666666666",
".......................................... -766657666665666555577766666666666666666666666666666566666666666666666666666666665666",
"............................................376655576666666666667566666666666666664666666666666666666666666666666666666666666666",
"............X...............................#76657556666666666665766666646666666666666665666666666666666666666666666666665666675",
".............................................<7675756656566666665666666666666666666666666666666666666666656666666656666666666655",
"............................................ @6655756666666666666666666666666666666666666666666666666665666666666666666666666557",
"..............................................>755557575666666666666666666666666666666666666666666666666666666666666666666666657",
"..............................................O577755556666666666666566666666666666666666666666656666666666666666666666666666665",
".....................X.........................$75557666666666656666666666666666466666666665666666666666666666666666666666666656",
"................................................37575566666666666566666666666666666666666666666666666666666666655666566666666666",
"...........................X....................#7575666666666666666666666666665666666666666566666666566566666666666666666666666",
"................................................ <756666666665666666656666666666666656666666666666666666666666666666566666666665",
".............X.................................. +756666666666666666666666666666666666666666666666666666666666656666666666666666",
"..................................................;76666666666666666666666666666666666666656666666666666666666666666666666666666",
"..................................................X37556666566666666666666666666665666666666666666666666666666666666666666666666",
".................................................. $7566666666666666666666666666666666656666656656666666666666666665666666666666",
"...............................................X....1766666666666665666666566666666666666666666666666656666666666666666666656666",
"....................................................#766666666666666666666666666666666666666666666666666666666666666666666666666",
"......................X..............................<75666666666656666666656666666666666656666666666666666666666666666666665666",
".....................................................O57656666666666666666666666665666666666666666666666666666666656666666666666",
"..................................................... -7555766656666666666666666666666666666666666566666666666656666666666666666",
"..................................................... o3775566666666666666666666666666666666666666666666656666666666666666666666",
"......X............................................... $755666666666666666666666666666666666666566665666666666666666566666666666",
"........................................................176666666666566666666666666666666666666666566666666666666666666666666666",
"........................................................@76666656666666666666666666666665666666666666666666666666666666666666566",
"........................................................ >7666666666666666666566566666666666666666666666666666666666666666666666"
};
