/* XPM */
static char *_c2093f2681946f1f86cbf9f3386526d[] = {
/* columns rows colors chars-per-pixel */
"64 64 79 1 ",
"  c #4F0067",
". c #500067",
"X c #54006B",
"o c #59006E",
"O c #5B0071",
"+ c #620077",
"@ c #67007B",
"# c #6B007F",
"$ c #6E0081",
"% c #720085",
"& c #700A83",
"* c #760289",
"= c #7A058C",
"- c #7A0B8C",
"; c #7C128E",
": c #791C8B",
"> c #7F0C91",
", c #810F92",
"< c #831494",
"1 c #851A95",
"2 c #881997",
"3 c #871998",
"4 c #891F99",
"5 c #852495",
"6 c #862996",
"7 c #872598",
"8 c #8B229B",
"9 c #872C98",
"0 c #8C2C9B",
"q c #8C339B",
"w c #8F3E9E",
"e c #9028A0",
"r c #933AA2",
"t c #8F409F",
"y c #9343A1",
"u c #9944A7",
"i c #9A4BA7",
"p c #9F51AD",
"a c #A054AE",
"s c #A359AF",
"d c #A65CB2",
"f c #9D61AA",
"g c #A661B2",
"h c #A962B4",
"j c #AA6CB5",
"k c #AE6CB9",
"l c #AE71B9",
"z c #B274BC",
"x c #B47CBE",
"c c #B77EC0",
"v c #B87FC2",
"b c #BA85C3",
"n c #BE8AC7",
"m c #C18AC9",
"M c #C493CC",
"N c #C799CF",
"B c #C89CCF",
"V c #CB9DD3",
"C c #C7A2CF",
"Z c #C8A2CF",
"A c #CAA4D2",
"S c #CDAAD4",
"D c #D4B4DA",
"F c #D6BADC",
"G c #D9BCDE",
"H c #DBC0DF",
"J c #DDC2E1",
"K c #E2CDE6",
"L c #E6D3EA",
"P c #E8D5EB",
"I c #EBDAEE",
"U c #EDE1EF",
"Y c #EEE3F1",
"T c #F1E5F3",
"R c #F3EBF5",
"E c #F7F1F8",
"W c #FAF5FA",
"Q c #FFFFFF",
"! c None",
/* pixels */
"!!!!!!!!!!!!!!!!!!!!!!!!!!444444444444!!!!!!!!!!!!!!!!!!!!!!!!!!",
"!!!!!!!!!!!!!!!!!!!!444444444444444444444444!!!!!!!!!!!!!!!!!!!!",
"!!!!!!!!!!!!!!!!44444444444444444444444444444444!!!!!!!!!!!!!!!!",
"!!!!!!!!!!!!!44444444444444444444444444444444448444!!!!!!!!!!!!!",
"!!!!!!!!!!!444444844444484444444448444444444444444444!!!!!!!!!!!",
"!!!!!!!!!!44444444444444444444444444444444444444444444!!!!!!!!!!",
"!!!!!!!!!8444444444444444444444444444444444444444444448!!!!!!!!!",
"!!!!!!!!444444444444444444444483<84444444444444444444444!!!!!!!!",
"!!!!!!!44444444444444444444888====88444444444444444444444!!!!!!!",
"!!!!!!4444444444444444444448,#qGGq#,8844444444444444444444!!!!!!",
"!!!!!4544444444444444444483$;bQQQQb;$2844444444444444444444!!!!!",
"!!!!444444444444444444488%%gYQQQQQQYg%*484444444444444444444!!!!",
"!!!!4444444444444444448-$yHQQQQQQQQQQHy#-8444444444444444444!!!!",
"!!!444444444444444448<$5AQQQDJQQQQJDQQQA5$<044444444444444444!!!",
"!!!44444444444444484%-xWQQWf:IQNNQP:fWQQWx-$28444444444448444!!!",
"!!!444444444444484*$aIQQQC5.DQQ--QQF.5ZQQQIp%*484444444444444!!!",
"!!44444444444488-$wFQQQFw$+dQQM$$MQQs+%tFQQQFw#-88444444444444!!",
"!!444444444478<$:BQQQUs$*<-YQE;<,;EQT-<*%sUQQQB1$<844444444444!!",
"!!44484444482%*lEQQQc;$20$vQQk#88$kQQv#83$-xQQQEl*%48444444444!!",
"!!4444444483%iLQQQS9$<88-4WQL%<883%LQW4-88<#9SQQQLi%3844444444!!",
"!4444444443>AQQQJy#=8844#SQQr*8448%uQQS#8488=$uJQQQA>3444444844!",
"!444444444<<WQTj%*48448%rQQD$444444#DQQr%e4484%%jTQW<<444444444!",
"!444444444<<IQmo3844882%KQQ7-844448=5QQK%244448<oMQP<<444444444!",
"!444444444<<IQN%884448$hQQb$84444448#nQQh$844488%NQI<<444444444!",
"!444444444<<IQN%44448<-RQR-;84444448<-RQR-<84448%NQI<<444444444!",
"!444444444<<IQN%84448#nQQd$8844444448$dQQn@84444%NQI<<444444444!",
"4444444444<<IQN%4448=7QQK$484444444482$KQQ7=8444$NQI<<4444844444",
"4444444445<<IQN%4444#DQQr%844444444448%rQQD#4448%NQI<<4444444444",
"4444444444<<IQN$848%uQQS#44444444444484#SQQu%844%NQI<<5444444444",
"4448444444<<IQN%443%PQW1-84444444444448-1WQP%248%NQI<<4444444444",
"4444444444<<IQN%88$kQQc#8444444444444448$xQQk$84%NQI<<4484444444",
"4444444444<<IQN%8,;EQY*<4444444444444448<*YQE;;8%NQI<<4444444444",
"4444444444<<IQN%8#NQQa%84444444444444444e%aQQN#8%NQI<<7444444444",
"4444444448<<IQN**0QQJ$24444444444444444442$HQQ0=%NQI<<4444444444",
"4444444444<<IQN%$GQQq*e444444444444444444e*qQQG$%NQI<<4444444444",
"4444444444<<IQVoaQQV#8444444444444444444444#NQQpoVQI<<4444444444",
"4444444444<<IQMOIQW;-4444444444444444444448;;EQYOMQI<<4444444444",
"4444444444<<IQguQQz#e24444444444444444444448$zQQigQI<<4444444444",
"!444444444<<IQALQI%34444444444888444848444483%IQLVQI<<844444444!",
"!444444445<<IQQQQq@<,,,-,>>,>>;>>,>>>>>>>>>,<@qQQQQI<<444444444!",
"!444444444<<IQQQD%8880888888088888888888088888%DQQQI<<444444444!",
"!444444444<<IQQQTRWWWWWWWWWWWWWWWWWWWWWWWWWWWWETQQQI<<444444444!",
"!444444444<<EQQQQQQQQQQQQQQQQQQQQQQQQQQQQQQQQQQQQQQW<;444844444!",
"!4444444443-AQQQQFgzmmmmmmmmnmmmmmmmmmmmmmmmzgFQQQQA>3444444444!",
"!!4484444481%iLQQRx&X#*%%%%%%%%%%%%%%%%%%*#.&xRQQLi%3844444444!!",
"!!44444444484%*lEQQQb;%288888788484888882$;bQQQEl*%48444444444!!",
"!!444444444488<$1BQQQUd%%48444445444484*%dUQQQB1#<884444444444!!",
"!!44444444444888-#wFQQQHy$=8444444448=$yJQQQFw#-88444444844444!!",
"!!!444444444444484*$aIQQQA6$<888488<$6AQQQIp$*484444444444444!!!",
"!!!44484444444444482$-cWQQWx-$2882$;xWQQWx-%28444484444444444!!!",
"!!!444444444444444448<#6AQQQIs$**%aIQQQA6$<884444444444444444!!!",
"!!!!4444444444444444888=#yJQQQFqqFQQQHy$-8444444444444444444!!!!",
"!!!!444444444444444444484%%gYQQQQQQYg%%484444444444444444444!!!!",
"!!!!!4444444444444444444882%;bQQQQb;$3844444444444444444444!!!!!",
"!!!!!!4444444444444444444448<#qGGq#>8844444444444444444444!!!!!!",
"!!!!!!!44444444444444444444448====88444444444444444444448!!!!!!!",
"!!!!!!!!444444444444444444444483384444444444444444444444!!!!!!!!",
"!!!!!!!!!4444444484444444444444444444444444444444444444!!!!!!!!!",
"!!!!!!!!!!44448444444444444444444484444484444444444444!!!!!!!!!!",
"!!!!!!!!!!!444444444444444444444444444444444444444444!!!!!!!!!!!",
"!!!!!!!!!!!!!44444444444444444844444444444444444844!!!!!!!!!!!!!",
"!!!!!!!!!!!!!!!!44444444444444444444444444444444!!!!!!!!!!!!!!!!",
"!!!!!!!!!!!!!!!!!!!!444444444444444444444444!!!!!!!!!!!!!!!!!!!!",
"!!!!!!!!!!!!!!!!!!!!!!!!!!444444444444!!!!!!!!!!!!!!!!!!!!!!!!!!"
};
