/* XPM */
static char *_494762411006[] = {
/* columns rows colors chars-per-pixel */
"64 64 200 2 ",
"   c #4E006F",
".  c #4F0070",
"X  c #500070",
"o  c #500071",
"O  c #510071",
"+  c #510072",
"@  c #510172",
"#  c #520072",
"$  c #520073",
"%  c #530073",
"&  c #520173",
"*  c #530173",
"=  c #530273",
"-  c #540174",
";  c #540274",
":  c #540374",
">  c #550374",
",  c #540275",
"<  c #550375",
"1  c #550475",
"2  c #560475",
"3  c #560575",
"4  c #560576",
"5  c #560676",
"6  c #570676",
"7  c #570776",
"8  c #570777",
"9  c #580777",
"0  c #580877",
"q  c #580878",
"w  c #590878",
"e  c #590978",
"r  c #590A78",
"t  c #590B78",
"y  c #5A0A79",
"u  c #5A0B79",
"i  c #5A0C79",
"p  c #5B0C79",
"a  c #5A0C7A",
"s  c #5B0C7A",
"d  c #5B0D7A",
"f  c #5B0E7A",
"g  c #5C0C7A",
"h  c #5C0E7A",
"j  c #5D0E7B",
"k  c #5D0F7B",
"l  c #5D0F7C",
"z  c #5D107B",
"x  c #5D117B",
"c  c #5E107C",
"v  c #5F117C",
"b  c #5F117D",
"n  c #5E127C",
"m  c #5E137C",
"M  c #5F127D",
"N  c #5F147D",
"B  c #60127D",
"V  c #60137E",
"C  c #60147D",
"Z  c #60157E",
"A  c #61157E",
"S  c #61157F",
"D  c #62157F",
"F  c #60167E",
"G  c #61177F",
"H  c #62167F",
"J  c #62177F",
"K  c #62187F",
"L  c #62197F",
"P  c #631780",
"I  c #631880",
"U  c #631980",
"Y  c #631881",
"T  c #631A80",
"R  c #631B80",
"E  c #641981",
"W  c #651A81",
"Q  c #651A82",
"!  c #651B82",
"~  c #661B82",
"^  c #641C81",
"/  c #651C82",
"(  c #661C82",
")  c #661D83",
"_  c #671D83",
"`  c #651E82",
"'  c #661E82",
"]  c #661F82",
"[  c #671E83",
"{  c #671F83",
"}  c #681F84",
"|  c #662083",
" . c #672083",
".. c #672183",
"X. c #682084",
"o. c #682184",
"O. c #692085",
"+. c #692185",
"@. c #6A2185",
"#. c #682284",
"$. c #682384",
"%. c #692384",
"&. c #692285",
"*. c #692385",
"=. c #6A2285",
"-. c #6A2385",
";. c #6A2286",
":. c #6A2386",
">. c #692485",
",. c #692585",
"<. c #6A2585",
"1. c #6A2486",
"2. c #6B2486",
"3. c #6B2487",
"4. c #6A2686",
"5. c #6B2686",
"6. c #6B2786",
"7. c #6B2787",
"8. c #6C2487",
"9. c #6C2687",
"0. c #6C2887",
"q. c #6C2987",
"w. c #6C2588",
"e. c #6D2688",
"r. c #6C2788",
"t. c #6D2788",
"y. c #6D2888",
"u. c #6C2988",
"i. c #6D2988",
"p. c #6E2889",
"a. c #6F2989",
"s. c #6D2A88",
"d. c #6F298A",
"f. c #6F2A8A",
"g. c #702A8A",
"h. c #702B8A",
"j. c #702B8B",
"k. c #702C8A",
"l. c #702C8B",
"z. c #712C8B",
"x. c #712D8B",
"c. c #712D8C",
"v. c #722D8C",
"b. c #722E8C",
"n. c #722F8D",
"m. c #732F8D",
"M. c #73308D",
"N. c #74308D",
"B. c #74318E",
"V. c #75328E",
"C. c #75338F",
"Z. c #76338F",
"A. c #76348F",
"S. c #763590",
"D. c #773690",
"F. c #783791",
"G. c #783891",
"H. c #793891",
"J. c #793892",
"K. c #793992",
"L. c #7A3992",
"P. c #7A3A92",
"I. c #7A3B93",
"U. c #7B3B93",
"Y. c #7B3C93",
"T. c #7C3C94",
"R. c #7C3D94",
"E. c #7C3D95",
"W. c #7C3E94",
"Q. c #7D3E95",
"!. c #7D3F95",
"~. c #7E4095",
"^. c #7E4096",
"/. c #7E4196",
"(. c #7F4196",
"). c #7F4297",
"_. c #804297",
"`. c #804397",
"'. c #804398",
"]. c #804498",
"[. c #814498",
"{. c #814598",
"}. c #814599",
"|. c #824599",
" X c #824699",
".X c #824799",
"XX c #834799",
"oX c #83479A",
"OX c #83489A",
"+X c #84489A",
"@X c #84499A",
"#X c #84499B",
"$X c #844A9B",
"%X c #854A9B",
"&X c #854B9B",
"*X c #854B9C",
"=X c #864B9C",
"-X c #864C9C",
";X c #864C9D",
":X c #874D9D",
/* pixels */
"% % % % % % % % % % % % % % % % % % % % % % % % % % % % % % % % % % % % % % % % % % % % % % % % % % % % % % % % % % % % % % % % ",
"% % % % % % % % % % % % % % % % % % % % % % % % % % % % % % % % % % % % % % % % % % % % % % % % % % % % % % % % % % % % % % % % ",
"% % % % % % % % % % % % % % % % % % % % % % % % % % % % % % % % % % % % % % % % % % % % % % % % % % % % % % % % % % % % % % % % ",
"% % % % % % % % % % % % % % % % % % % % % % % % % % % % % % % % % % % % % % % % % % % % % % % % % % % % % % % % % % % % % % % % ",
"% % % % % % % % % % % % % % % % % % % % % % % % % % % % % % % % % % % % % % % % % % % % % % % % % % % % % % % % % % % % % % % % ",
"% % % % % % % % % % % % % % % % % % % % % % % % % % % % % % % % % % % % % % % % % % % % % % % % % % % % % % % % % % % % % % % % ",
"% % % % % % % % % % % % % % % % % % % % % % % % % % % % % % % % % % % % % % % % % % % % % % % % % % % % % % % % % % % % % % % % ",
"% % % % % % % % % % % % % % % % % % % % % % % % % % % % % % % % % % % % % % % % % % % % % % % % % % % % % % % % % % % % % % % % ",
"% % % % % % % % % % % % % % % % % % % % % % % % % % % % % % % % % % % % % % % % % % % % % % % % % % % % % % % % % % % % % % % % ",
"% % % % % % % % % % % % % % % % % % % % % % % % % % % % % % % % % % % % % % % % % % % % % % % % % % % % % % % % % % % % % % % % ",
"% % % % % % % % % % % % % % % % % % % % % % % % % % % % % % % % % % % % % % % % % % % % % % % % % % % % % % % % % % % % % % % % ",
"% % % % % % % % % % % % % % % % % % % % % % % % % % % % % % % % % % % % % % % % % % % % % % % % % % % % % % % % % % % % % % % % ",
"% % % % % % % % % % % % % % % % % % % % % % % % % % % % % % % % : % % % % % % % % % % % % % % % % % % % % % % % % % % % % % % % ",
"% % % % % % % % % % % % % % % % % % % % % % % % % % % % % % 0 { q.K 1 % % % % % % % % % % % % % % % % % % % % % % % % % % % % % ",
"% % % % % % % % % % % % % % % % % % % % % % % % % % % % , W ,...$.$.q.N % % % % % % % % % % % % % % % % % % % % % % % % % % % % ",
"% % % % % % % % % % % % % % % % % % % % % % % % % % % x s...F R.{.C.x ,.,.t % % % % % % % % % % % % % % % % % % % % % % % % % % ",
"% % % % % % % % % % % % % % % % % % % % % % % . . t ,.q.x % C./.F &X+.% K 0.{ 0 % % % % % % % % % % % % % % % % % % % % % % % % ",
"% % % % % % % % % % % % % % % % % % % % % % % 0 | q.K %   F ;XW . x.}.r % 1 { 0.K > % % % % % % % % % % % % % % % % % % % % % % ",
"% % % % % % % % % % % % % % % % % % % % % % K q.^ 0 % % , Q.P.% % 1 }.n.  % . t $.q.x % % % % % % % % % % % % % % % % % % % % % ",
"% % % % % % % % % % % % % % % % % % % % x q.,.t % % % % +.&Xh % % % +.&Xm % % % % m 0.| t . % % % % % % % % % % % % % % % % % % ",
"% % % % % % % % % % % % % % % % % % t $.q.x % % % % % 1 }.x.% % % % % Q.P., % % % % = L 0.^ 0 % % % % % % % % % % % % % % % % % ",
"% % % % % % % % % % % % % % % % 1 ^ s.K : % % % % %   x.OX0 % % % % % F ;XW % % % % % % 0 | q.N % % % % % % % % % % % % % % % % ",
"% % % % % % % % % % % % % % % 0 q.| 0 . % % % % % % h &X,.. % % % % % % D.).1 % % % % % % % x q.| % % % % % % % % % % % % % % % ",
"% % % % % % % % % % % % % % % 0 q., % % % % % % % % P./., % % % % % % . t &Xs.. % % % % % %   t q.m % % % % % % % % % % % % % % ",
"% % % % % % % % % % % % % % % 0 ,., * * % % % %   T ;XP   % % % % % % % . s.&Xr % % % % % % % t ,.M.t % % % % % % % % % % % % % ",
"% % % % % % % % % % % % % % % 0 q., * * % % % % : /.D.% % % % % % % % % % 1 }.C.. % % % % % % t +.P.M.% % % % % % % % % % % % % ",
"% % % % % % % % % % % % % % % r 9., * * % % % % w.;Xh % % % % % % % % % % % { =XN % % % % % % t ..D.&Xm   % % % % % % % % % % % ",
"% % % % % % % % % % % % % % % 0 0., * * % % % 0 OXs.. % % % % % % % % % % % , P.Y.= % % % % % t ..D.&XG.% % % % % % % % % % % % ",
"% % % % % % % % % % % % % % % 0 9.> * * * * % n.}.9 % % % % % % % % % % % %   B ;X| % % % % % t ..C.OXOX{ % % % % % % % % % % % ",
"% % % % % % % % % % % % % % % r ,.1 * * % % B &X{ % % % % % % % % % % % % % % % M.{.1 % % % % x ,.D.&X}./.1 % % % % % % % % % % ",
"% % % % % % % % % % % % % % % 0 0.1 * * % % P.W.% % % % % % % % % % % % % % % % r OXs.% % % % t %.C.OX}.&Xw.% % % % % % % % % % ",
"% % % % % % % % % % % % % % % 0 0.* * * % W &XF % % % % % % % % % % % % % % % % % w.&Xt % % % t %.C.OX}.}.}.t . % % % % % % % % ",
"% % % % % % % % % % % % % % % 0 q., % , 1 /.C.. % % % % % % % % % % % % % % % % % 1 /.C.% % % t ,.C.OX}.{.OXC.% % % % % % % % % ",
"% % % % % % % % % % % % % % % t ,., % . w.=Xt % % % % % % % % % % % % % % % % % %   { =XF % % h +.C.OX{.{.).OXF X % % % % % % % ",
"% % % % % % % % % % % % % % % 0 q., % r &Xs.X % % % % % % % % % % % % % % % % % % % % P.W.* % h %.C.OX{.).@X@XY.* % % % % % % % ",
"% % % % % % % % % % % % % % % 0 0., % S.'.1 % % % % % % % % % % % % % % % % % % % % % x &X+.  t %.C.OX{.@X).).OX .% % % % % % % ",
"% % % % % % % % % % % % % % % t ,.* B &X{   % % % % % % % % % % % % % % % % % % % % % X n.}.1 t %.C.@X).{.{.{.@X`.9 X % % % % % ",
"% % % % % % % % % % % % % % % 0 ,.9 P.T.% % % % % % % % % % % % % % % % % % % % % % % % 9 &Xh.0 %.D.@X{.{.{.{.{.&Xs.X % % % % % ",
"% % % % % % % % % % % % % % % 0  .+.&XB X % % % % % % X % % % % % % % % % % % . % % % % %  .&XW | C.&X{.{.{.{.{.}.}.x % % % % % ",
"% % % % % % % % % % % % % % % 0 ,.P.F.1 9 0 0 0 1 9 0 0 0 1 0 0 1 0 0 0 1 r 1 0 0 0 1 9 9 r `.x.| C.@X{.{.{.{.{.'.&XC.% % % % % ",
"% % % % % % % % % % % % % % % t ,.s.{.}.}.{.}.}.}.}.}.}.XX}.}.}.OX}.}.}.}.}.}.}.XX}.XX}.{.{.Q.+.} C.&X{.{.{.{.{.}.{.&XP % * * * ",
"% % % % % % % % % % % % % % % = +.+.+.+.} } +. .{ | +. .} +.{ {  .} +. .{ +.+. .} } } +.} +. .+.L P.}.{.{.{.{.{.{.{.XXT.* * * * ",
"% % % % % % % % % % % % % % % % L 9.{ K 1 X X %   % %   % X X % % X % X   . % X %   X % t  .} 2.W.}.{.{.{.{.{.{.{.{.{.&X+.% * * ",
"% % % % % % % % % % % % % % % % r Q.n.+.q.K > % % % % % % % % % % % % % % % % % % % 0 { ,. .C.XXXX{.{.{.{.{.{.{.{.{.{.XX{.0 % * ",
"% % % % % % % % % % % % % % % % X { ;XQ.0. .,.N , % % % * * * * % % % % % % % % > L ,. .x.'.&X`.{.{.{.{.{.{.{.{.{.{.{.{.OXx.% % ",
"% % % % % % % % % % % % % % % % % % P.&XOXP.,.%.,.t % % * * * * % % % % % % * C ,.$.0.W.&X}.{.{.{.{.{.{.{.{.{.{.{.{.{.{.}.OXm X ",
"% % % % % % % % % % % % % % % % % % B OX}.XX}.C. .,.{ 0 % % * * % % % X % x | %.,.P.}.OX{.{.{.{.{.{.{.{.{.{.{.{.{.{.{.{.`.&XD.% ",
"% % % % % % % % % % % % % % % % % % % x.&X{.{.&X`.x. .%.K > % * % % % 0 { |  .C.}.&X}.{.{.{.{.{.{.{.{.{.{.{.{.{.{.{.{.{.}.}.}.{ ",
"% % % % % % % % % % % % % % % % % % % t }.}.{.{.}.&XT.9. .,.B * % 1 K ,.} x.`.&X{.{.{.{.{.{.{.{.{.{.{.{.{.{.{.{.{.{.{.{.{.{.}.`.",
"% % % % % % % % % % % % % % % % % % %   9.&X{.{.{.{.OX}.D.2.,.| F +.+.9.W.XX{.{.{.{.{.{.{.{.{.{.{.{.{.{.{.{.{.{.{.{.{.{.{.{.{.{.",
"% % % % % % % % % % % % % % % % % % % % , W.&X{.{.{.{.{.XX}.C. . .,.D.XX}.{.{.{.{.{.{.{.{.{.{.{.{.{.{.{.{.{.{.{.{.{.{.{.{.{.{.{.",
"% % % % % % % % % % % % % % % % % % % % % W XX}.{.{.{.{.{.{.XX`.C.{.&X{.{.{.{.{.{.{.{.{.{.{.{.{.{.{.{.{.{.{.{.{.{.{.{.{.{.{.{.{.",
"% % % % % % % % % % % % % % % % % % % % % % C.&X{.{.{.{.{.{.{.}.&X}.{.{.{.{.{.{.{.{.{.{.{.{.{.{.{.{.{.{.{.{.{.{.{.{.{.{.{.{.{.{.",
"% % % % % % % % % % % % % % % % % % % % % % x OX}.{.{.{.{.{.{.{.`.{.{.{.{.{.{.{.{.{.{.{.{.{.{.{.{.{.{.{.{.{.{.{.{.{.{.{.{.{.{.{.",
"% % % % % % % % % % % % % % % % % % % % % % % f.&X{.{.{.{.{.{.{.{.{.{.{.{.{.{.{.{.{.{.{.{.{.{.{.{.{.{.{.{.{.{.{.{.{.{.{.{.{.{.{.",
"% % % % % % % % % % % % % % % % % % % % % % % 0 `.}.{.{.{.{.{.{.{.{.{.{.{.{.{.{.{.{.{.{.{.{.{.{.{.{.{.{.{.{.{.{.{.{.{.{.{.{.{.{.",
"% % % % % % % % % % % % % % % % % % % % % % % X +.&X{.{.{.{.{.{.{.{.{.{.{.{.{.{.{.{.{.{.{.{.{.{.{.{.{.{.{.{.{.{.{.{.{.{.{.{.{.{.",
"% % % % % % % % % % % % % % % % % % % % % % % % , Q.XX}.{.{.{.{.{.{.{.{.{.{.{.{.{.{.{.{.{.{.{.{.{.{.{.{.{.{.{.{.{.{.{.{.{.{.{.{.",
"% % % % % % % % % % % % % % % % % % % % % % % % % K &X`.{.{.{.{.{.{.{.{.{.{.{.{.{.{.{.{.{.{.{.{.{.{.{.{.{.{.{.{.{.{.{.{.{.{.{.{.",
"% % % % % % % % % % % % % % % % % % % % % % % % % % C.&X{.{.{.{.{.{.{.{.{.{.{.{.{.{.{.{.{.{.{.{.{.{.{.{.{.{.{.{.{.{.{.{.{.{.{.{.",
"% % % % % % % % % % % % % % % % % % % % % % % % % % h }.XX{.{.{.{.{.{.{.{.{.{.{.{.{.{.{.{.{.{.{.{.{.{.{.{.{.{.{.{.{.{.{.{.{.{.{.",
"% % % % % % % % % % % % % % % % % % % % % % % % % % % h.&X}.{.{.{.{.{.{.{.{.{.{.{.{.{.{.{.{.{.{.{.{.{.{.{.{.{.{.{.{.{.{.{.{.{.{.",
"% % % % % % % % % % % % % % % % % % % % % % % % % % % 0 /.}.{.{.{.{.{.{.{.{.{.{.{.{.{.{.{.{.{.{.{.{.{.{.{.{.{.{.{.{.{.{.{.{.{.{.",
"% % % % % % % % % % % % % % % % % % % % % % % % % % %    .&X{.{.{.{.{.{.{.{.{.{.{.{.{.{.{.{.{.{.{.{.{.{.{.{.{.{.{.{.{.{.{.{.{.{."
};
