/* XPM */
static char *_410372df6e04863afbb9d3a6a4a7ced[] = {
/* columns rows colors chars-per-pixel */
"16 16 91 1 ",
"  c #55006C",
". c #6D0081",
"X c #6D0581",
"o c #720085",
"O c #730086",
"+ c #740087",
"@ c #730686",
"# c #750088",
"$ c #77008A",
"% c #750588",
"& c #760588",
"* c #78028B",
"= c #7B0B8D",
"- c #79108B",
"; c #7E0C90",
": c #7F0D90",
"> c #810E91",
", c #800F91",
"< c #811193",
"1 c #831293",
"2 c #821393",
"3 c #841395",
"4 c #861696",
"5 c #811993",
"6 c #821993",
"7 c #811A93",
"8 c #851D96",
"9 c #891A99",
"0 c #8A1A99",
"q c #8A1A9A",
"w c #891E99",
"e c #891F99",
"r c #8A1C9A",
"t c #891F9A",
"y c #872497",
"u c #892099",
"i c #8A209A",
"p c #8A219A",
"a c #8C229B",
"s c #8C239C",
"d c #8C249C",
"f c #8D249C",
"g c #8C379B",
"h c #8C3B9C",
"j c #8D3B9C",
"k c #8F3C9E",
"l c #8E3F9E",
"z c #902BA0",
"x c #922EA1",
"c c #8E409E",
"v c #974BA6",
"b c #9F43AB",
"n c #9E44AB",
"m c #A04AAD",
"M c #A24BAE",
"N c #A054AD",
"B c #A154AD",
"V c #A264AE",
"C c #A265AE",
"Z c #A774B3",
"A c #AD7DB8",
"S c #B176BC",
"D c #B178BC",
"F c #B57ABF",
"G c #B47BBF",
"H c #B47CBE",
"J c #B280BC",
"K c #B281BC",
"L c #BA82C4",
"P c #C797CF",
"I c #C99FD1",
"U c #C3A0CB",
"Y c #C6A3CD",
"T c #C9A0D0",
"R c #CBA2D2",
"E c #CFAFD6",
"W c #D0A7D7",
"Q c #CBB3D2",
"! c #D5B8DB",
"~ c #D6B8DB",
"^ c #D6BADC",
"/ c #D6BBDC",
"( c #D5C0DB",
") c #D5C1DB",
"_ c #D5C2DB",
"` c #DFCCE3",
"' c #E6D7E9",
"] c #F2E6F4",
"[ c #F2EAF3",
"{ c gray100",
"} c None",
/* pixels */
"}}}}eeuuuuee}}}}",
"}}eeef4OO4fuee}}",
"}eea9O6II6O9aee}",
"}us*-HU[[UH-*su}",
"eu;v/ZKBBKZ)v;uu",
"u<x`c.^66^.c`x<u",
"u:MP RH++GR PM>u",
"u<nLh!%ee&^jLn;u",
"u>nDYM+ee#mYDn;u",
"u>z]JXe88eXJ]z<u",
"u<2{'AIWWIA'{1<u",
"uu>j)Qg=;gQ)j>ue",
"}uf*%SECCES%*fu}",
"}ues9OyTTyO9see}",
"}}eees3*#4feee}}",
"}}}}eeeuueee}}}}"
};
