<svg id="svg" version="1.1" width="500" height="500" xmlns="http://www.w3.org/2000/svg" xmlns:xlink="http://www.w3.org/1999/xlink" style="display: block;"><g id="svgg"><path id="path0" d="M0.000 200.000 L 0.000 400.000 89.600 400.000 C 138.880 400.000,179.200 399.809,179.200 399.575 C 179.200 399.134,167.488 378.614,166.429 377.200 C 166.100 376.760,164.748 374.420,163.425 372.000 C 162.101 369.580,154.263 355.900,146.006 341.600 C 137.749 327.300,129.908 313.620,128.582 311.200 C 127.255 308.780,125.900 306.440,125.570 306.000 C 125.240 305.560,124.212 303.850,123.285 302.200 C 121.006 298.143,119.939 296.290,110.106 279.312 C 99.888 261.669,99.905 261.727,105.846 265.110 C 112.602 268.957,130.190 279.086,137.063 283.088 C 140.948 285.349,144.458 287.200,144.863 287.200 C 145.268 287.200,145.600 287.518,145.600 287.907 C 145.600 288.295,146.230 288.820,147.000 289.072 C 147.770 289.324,150.020 290.496,152.000 291.678 C 153.980 292.860,156.770 294.495,158.200 295.313 C 165.083 299.249,166.612 300.119,169.400 301.683 C 171.050 302.609,175.280 305.083,178.800 307.180 C 182.320 309.278,186.820 311.890,188.800 312.984 C 197.121 317.583,198.838 318.587,199.560 319.275 C 200.837 320.493,204.289 320.051,206.400 318.400 C 207.500 317.540,208.646 316.828,208.947 316.818 C 209.248 316.808,211.228 315.761,213.347 314.491 C 218.721 311.270,235.665 301.441,240.000 299.029 C 245.271 296.097,248.660 294.146,253.600 291.200 C 256.020 289.757,259.170 287.907,260.600 287.088 C 262.030 286.270,264.370 284.921,265.800 284.091 C 276.320 277.984,285.058 272.974,288.800 270.905 C 291.220 269.567,296.260 266.597,300.000 264.306 L 306.800 260.139 307.200 202.936 C 307.420 171.474,307.838 145.495,308.129 145.204 C 308.419 144.914,310.181 147.314,312.044 150.538 C 313.907 153.762,316.689 158.560,318.227 161.200 C 321.875 167.462,332.338 185.542,334.283 188.943 C 335.118 190.405,338.411 196.100,341.600 201.600 C 347.090 211.069,348.330 213.211,351.900 219.400 C 352.724 220.830,357.992 229.920,363.605 239.600 C 373.855 257.278,375.447 260.033,378.400 265.200 C 380.391 268.684,381.157 270.016,390.825 286.800 C 395.134 294.280,398.961 300.742,399.330 301.160 C 399.698 301.578,400.000 233.988,400.000 150.960 L 400.000 0.000 200.000 0.000 L 0.000 0.000 0.000 200.000 M210.242 84.522 C 214.509 87.008,226.100 93.711,236.000 99.417 C 245.900 105.123,255.080 110.427,256.400 111.203 C 257.720 111.980,268.787 118.370,280.992 125.404 C 293.198 132.437,303.728 138.642,304.392 139.194 C 305.449 140.071,305.600 147.596,305.600 199.506 L 305.600 258.815 303.800 259.950 C 302.225 260.942,293.167 266.255,286.000 270.390 C 284.680 271.152,280.000 273.861,275.600 276.411 C 271.200 278.960,260.760 284.998,252.400 289.828 C 244.040 294.657,236.120 299.236,234.800 300.002 C 215.090 311.442,202.809 318.400,202.328 318.400 C 201.823 318.400,191.912 312.899,183.600 308.006 C 181.684 306.877,159.703 294.190,147.600 287.226 C 146.280 286.467,141.600 283.760,137.200 281.210 C 129.643 276.832,128.022 275.899,121.200 272.000 C 119.660 271.120,117.140 269.680,115.600 268.800 C 109.050 265.057,107.395 264.099,103.600 261.854 L 99.600 259.488 99.395 199.517 L 99.190 139.547 107.395 134.814 C 127.999 122.931,147.069 111.904,167.600 100.000 C 195.318 83.929,202.040 80.054,202.242 80.029 C 202.376 80.013,205.976 82.035,210.242 84.522 M199.560 89.537 C 199.142 89.942,195.560 92.148,191.600 94.439 C 187.640 96.731,183.320 99.230,182.000 99.993 C 180.680 100.757,169.160 107.402,156.400 114.761 C 134.683 127.286,126.142 132.249,112.400 140.326 L 106.800 143.617 106.800 199.569 L 106.800 255.521 112.000 258.568 C 114.860 260.244,117.740 261.856,118.400 262.149 C 119.060 262.443,120.860 263.462,122.400 264.414 C 123.940 265.367,126.820 267.056,128.800 268.169 C 130.780 269.281,142.840 276.223,155.600 283.596 C 168.360 290.968,179.991 297.681,181.448 298.513 C 182.904 299.345,186.684 301.514,189.848 303.334 C 193.011 305.153,197.113 307.508,198.962 308.568 L 202.324 310.494 205.762 308.549 C 207.653 307.480,220.461 300.084,234.224 292.115 C 247.987 284.145,260.767 276.769,262.624 275.722 C 264.481 274.676,268.340 272.429,271.200 270.728 C 278.333 266.486,279.424 265.863,289.123 260.484 C 294.862 257.301,297.760 255.220,298.035 254.084 C 298.258 253.158,298.342 227.945,298.221 198.056 L 298.000 143.712 294.000 141.346 C 291.800 140.044,288.920 138.356,287.600 137.594 C 265.655 124.927,238.261 109.096,236.400 108.005 C 226.500 102.202,213.266 94.589,209.600 92.588 C 207.180 91.266,204.858 89.873,204.440 89.492 C 203.439 88.580,200.520 88.607,199.560 89.537 M204.677 91.829 C 205.844 92.615,207.820 93.772,209.068 94.400 C 211.397 95.574,213.026 97.509,215.802 102.400 C 216.676 103.940,221.339 112.040,226.163 120.400 C 230.988 128.760,235.848 137.220,236.964 139.200 C 238.080 141.180,240.886 146.040,243.199 150.000 C 247.434 157.249,249.153 160.218,251.886 165.000 C 252.703 166.430,256.180 172.460,259.613 178.400 C 263.046 184.340,272.834 201.344,281.364 216.186 L 296.874 243.172 296.637 248.581 L 296.400 253.991 292.018 256.606 L 287.636 259.221 201.618 259.011 L 115.600 258.800 111.800 256.162 L 108.000 253.523 108.000 248.273 C 108.000 243.090,108.100 242.850,115.705 229.711 C 126.888 210.392,128.752 207.140,131.820 201.600 C 132.917 199.620,134.078 197.640,134.400 197.200 C 134.722 196.760,135.888 194.780,136.991 192.800 C 139.502 188.293,146.007 177.002,153.583 164.000 C 156.788 158.500,160.502 152.020,161.838 149.600 C 163.173 147.180,165.767 142.680,167.601 139.600 C 169.436 136.520,172.856 130.580,175.202 126.400 C 177.548 122.220,180.073 117.900,180.812 116.800 C 181.551 115.700,183.239 112.820,184.563 110.400 C 192.018 96.773,192.832 95.800,200.389 91.478 C 202.551 90.242,202.285 90.220,204.677 91.829 M197.526 107.696 C 192.899 115.926,192.507 116.610,187.490 125.200 C 185.691 128.280,183.321 132.420,182.223 134.400 C 179.744 138.869,179.271 139.690,167.013 160.800 C 152.404 185.961,148.462 192.783,146.214 196.800 C 145.107 198.780,138.890 209.580,132.400 220.800 C 116.863 247.660,116.800 247.773,116.800 248.754 C 116.800 249.343,142.761 249.600,202.400 249.600 C 262.039 249.600,288.000 249.343,288.000 248.754 C 288.000 248.289,287.140 246.399,286.090 244.554 C 282.646 238.507,269.209 215.153,258.385 196.400 C 252.544 186.280,245.608 174.220,242.973 169.600 C 240.338 164.980,236.671 158.680,234.824 155.600 C 232.977 152.520,230.373 148.020,229.038 145.600 C 227.702 143.180,223.996 136.700,220.802 131.200 C 217.608 125.700,214.051 119.547,212.897 117.526 C 205.582 104.710,202.743 100.005,202.326 100.003 C 202.065 100.001,199.905 103.463,197.526 107.696 " stroke="none" fill="#530073" fill-rule="evenodd"></path><path id="path1" d="M186.000 89.333 C 177.200 94.434,168.920 99.234,167.600 100.000 C 147.069 111.904,127.999 122.931,107.395 134.814 L 99.190 139.547 99.395 199.517 L 99.600 259.488 103.600 261.854 C 107.395 264.099,109.050 265.057,115.600 268.800 C 117.140 269.680,119.660 271.120,121.200 272.000 C 128.022 275.899,129.643 276.832,137.200 281.210 C 141.600 283.760,146.280 286.467,147.600 287.226 C 159.703 294.190,181.684 306.877,183.600 308.006 C 191.912 312.899,201.823 318.400,202.328 318.400 C 202.809 318.400,215.090 311.442,234.800 300.002 C 236.120 299.236,244.040 294.657,252.400 289.828 C 260.760 284.998,271.200 278.960,275.600 276.411 C 280.000 273.861,284.680 271.152,286.000 270.390 C 293.167 266.255,302.225 260.942,303.800 259.950 L 305.600 258.815 305.600 199.506 C 305.600 147.596,305.449 140.071,304.392 139.194 C 303.728 138.642,293.198 132.437,280.992 125.404 C 268.787 118.370,257.720 111.980,256.400 111.203 C 255.080 110.427,245.900 105.123,236.000 99.417 C 226.100 93.711,214.509 87.008,210.242 84.522 C 200.984 79.125,204.977 78.333,186.000 89.333 M204.440 89.492 C 204.858 89.873,207.180 91.266,209.600 92.588 C 213.266 94.589,226.500 102.202,236.400 108.005 C 238.261 109.096,265.655 124.927,287.600 137.594 C 288.920 138.356,291.800 140.044,294.000 141.346 L 298.000 143.712 298.221 198.056 C 298.342 227.945,298.258 253.158,298.035 254.084 C 297.760 255.220,294.862 257.301,289.123 260.484 C 279.424 265.863,278.333 266.486,271.200 270.728 C 268.340 272.429,264.481 274.676,262.624 275.722 C 260.767 276.769,247.987 284.145,234.224 292.115 C 220.461 300.084,207.653 307.480,205.762 308.549 L 202.324 310.494 198.962 308.568 C 197.113 307.508,193.011 305.153,189.848 303.334 C 186.684 301.514,182.904 299.345,181.448 298.513 C 179.991 297.681,168.360 290.968,155.600 283.596 C 142.840 276.223,130.780 269.281,128.800 268.169 C 126.820 267.056,123.940 265.367,122.400 264.414 C 120.860 263.462,119.060 262.443,118.400 262.149 C 117.740 261.856,114.860 260.244,112.000 258.568 L 106.800 255.521 106.800 199.569 L 106.800 143.617 112.400 140.326 C 126.142 132.249,134.683 127.286,156.400 114.761 C 169.160 107.402,180.680 100.757,182.000 99.993 C 183.320 99.230,187.640 96.731,191.600 94.439 C 195.560 92.148,199.142 89.942,199.560 89.537 C 200.520 88.607,203.439 88.580,204.440 89.492 M200.389 91.478 C 192.832 95.800,192.018 96.773,184.563 110.400 C 183.239 112.820,181.551 115.700,180.812 116.800 C 180.073 117.900,177.548 122.220,175.202 126.400 C 172.856 130.580,169.436 136.520,167.601 139.600 C 165.767 142.680,163.173 147.180,161.838 149.600 C 160.502 152.020,156.788 158.500,153.583 164.000 C 146.007 177.002,139.502 188.293,136.991 192.800 C 135.888 194.780,134.722 196.760,134.400 197.200 C 134.078 197.640,132.917 199.620,131.820 201.600 C 128.752 207.140,126.888 210.392,115.705 229.711 C 108.100 242.850,108.000 243.090,108.000 248.273 L 108.000 253.523 111.800 256.162 L 115.600 258.800 201.618 259.011 L 287.636 259.221 292.018 256.606 L 296.400 253.991 296.637 248.581 L 296.874 243.172 281.364 216.186 C 272.834 201.344,263.046 184.340,259.613 178.400 C 256.180 172.460,252.703 166.430,251.886 165.000 C 249.153 160.218,247.434 157.249,243.199 150.000 C 240.886 146.040,238.080 141.180,236.964 139.200 C 235.848 137.220,230.988 128.760,226.163 120.400 C 221.339 112.040,216.676 103.940,215.802 102.400 C 213.026 97.509,211.397 95.574,209.068 94.400 C 207.820 93.772,205.844 92.615,204.677 91.829 C 202.285 90.220,202.551 90.242,200.389 91.478 M207.205 94.600 C 211.615 97.245,212.958 99.077,220.547 112.800 C 222.712 116.716,231.332 131.686,245.189 155.600 C 247.739 160.000,250.495 164.770,251.313 166.200 C 252.131 167.630,253.473 169.970,254.296 171.400 C 255.852 174.103,284.659 224.033,287.298 228.600 C 289.147 231.801,291.477 235.877,293.633 239.684 C 294.934 241.980,295.219 243.707,295.033 248.165 L 294.800 253.762 290.800 256.047 L 286.800 258.333 202.388 258.366 C 119.014 258.400,117.941 258.380,115.188 256.778 C 113.654 255.886,111.766 254.943,110.991 254.683 C 107.555 253.527,108.170 244.841,112.174 238.000 C 113.719 235.360,115.885 231.580,116.988 229.600 C 118.091 227.620,120.886 222.760,123.200 218.800 C 125.514 214.840,128.226 210.160,129.226 208.400 C 130.782 205.664,142.636 185.066,147.297 177.000 C 148.124 175.570,149.520 173.140,150.400 171.600 C 151.280 170.060,152.675 167.630,153.500 166.200 C 158.035 158.339,182.054 116.775,183.434 114.400 C 184.329 112.860,185.543 110.700,186.131 109.600 C 190.645 101.164,194.276 96.323,197.600 94.308 C 202.191 91.525,202.073 91.522,207.205 94.600 M200.972 100.200 C 200.172 101.171,194.821 110.264,187.200 123.600 C 186.320 125.140,184.880 127.660,184.000 129.200 C 179.638 136.834,179.892 136.395,169.281 154.614 C 165.496 161.112,162.400 166.575,162.400 166.755 C 162.400 166.935,160.600 170.015,158.400 173.600 C 156.200 177.185,154.400 180.277,154.400 180.472 C 154.400 180.668,152.830 183.431,150.911 186.614 C 147.702 191.935,137.033 210.437,130.045 222.800 C 128.462 225.599,123.655 233.912,122.179 236.400 C 121.397 237.720,120.544 239.430,120.285 240.200 C 120.026 240.970,119.495 241.600,119.107 241.600 C 118.718 241.600,118.400 241.994,118.400 242.477 C 118.400 242.959,117.646 244.411,116.725 245.705 C 113.163 250.708,107.544 250.400,202.400 250.400 C 294.065 250.400,291.818 250.489,288.975 246.990 C 288.532 246.445,287.412 244.650,286.485 243.000 C 282.706 236.272,281.605 234.379,278.473 229.225 C 276.673 226.261,275.200 223.727,275.200 223.593 C 275.200 223.458,272.630 218.905,269.488 213.474 C 266.347 208.043,261.806 200.180,259.398 196.000 C 256.989 191.820,254.339 187.230,253.509 185.800 C 252.679 184.370,251.329 182.030,250.509 180.600 C 249.689 179.170,247.758 175.840,246.218 173.200 C 244.677 170.560,242.510 166.780,241.401 164.800 C 240.292 162.820,234.796 153.280,229.187 143.600 C 218.898 125.842,217.309 123.091,214.400 118.000 C 213.520 116.460,212.080 113.940,211.200 112.400 C 210.320 110.860,208.838 108.250,207.906 106.600 C 203.942 99.577,202.546 98.289,200.972 100.200 M206.800 106.928 C 209.000 110.736,211.744 115.505,212.897 117.526 C 214.051 119.547,217.608 125.700,220.802 131.200 C 223.996 136.700,227.702 143.180,229.038 145.600 C 230.373 148.020,232.977 152.520,234.824 155.600 C 236.671 158.680,240.338 164.980,242.973 169.600 C 245.608 174.220,252.544 186.280,258.385 196.400 C 269.209 215.153,282.646 238.507,286.090 244.554 C 287.140 246.399,288.000 248.289,288.000 248.754 C 288.000 249.343,262.039 249.600,202.400 249.600 C 142.761 249.600,116.800 249.343,116.800 248.754 C 116.800 247.773,116.863 247.660,132.400 220.800 C 138.890 209.580,145.107 198.780,146.214 196.800 C 148.462 192.783,152.404 185.961,167.013 160.800 C 179.271 139.690,179.744 138.869,182.223 134.400 C 183.321 132.420,185.691 128.280,187.490 125.200 C 192.507 116.610,192.899 115.926,197.526 107.696 C 202.735 98.429,201.928 98.496,206.800 106.928 M307.813 144.840 C 307.711 145.038,307.441 171.061,307.213 202.669 L 306.800 260.139 300.000 264.306 C 296.260 266.597,291.220 269.567,288.800 270.905 C 285.058 272.974,276.320 277.984,265.800 284.091 C 264.370 284.921,262.030 286.270,260.600 287.088 C 259.170 287.907,256.020 289.757,253.600 291.200 C 248.660 294.146,245.271 296.097,240.000 299.029 C 235.665 301.441,218.721 311.270,213.347 314.491 C 211.228 315.761,209.248 316.808,208.947 316.818 C 208.646 316.828,207.500 317.540,206.400 318.400 C 204.289 320.051,200.837 320.493,199.560 319.275 C 198.838 318.587,197.121 317.583,188.800 312.984 C 186.820 311.890,182.320 309.278,178.800 307.180 C 175.280 305.083,171.050 302.609,169.400 301.683 C 166.612 300.119,165.083 299.249,158.200 295.313 C 156.770 294.495,153.980 292.860,152.000 291.678 C 150.020 290.496,147.770 289.324,147.000 289.072 C 146.230 288.820,145.600 288.295,145.600 287.907 C 145.600 287.518,145.268 287.200,144.863 287.200 C 144.458 287.200,140.948 285.349,137.063 283.088 C 130.190 279.086,112.602 268.957,105.846 265.110 C 99.905 261.727,99.888 261.669,110.106 279.312 C 119.939 296.290,121.006 298.143,123.285 302.200 C 124.212 303.850,125.240 305.560,125.570 306.000 C 125.900 306.440,127.255 308.780,128.582 311.200 C 129.908 313.620,137.747 327.300,146.001 341.600 C 154.256 355.900,161.910 369.220,163.011 371.200 C 164.112 373.180,166.192 376.780,167.633 379.200 C 169.074 381.620,172.443 387.380,175.119 392.000 C 177.795 396.620,179.988 399.977,179.992 399.460 C 179.999 398.673,175.164 390.126,151.900 349.800 C 151.075 348.370,149.680 345.940,148.800 344.400 C 147.920 342.860,146.523 340.430,145.696 339.000 C 143.998 336.063,129.365 310.588,127.086 306.600 C 126.269 305.170,124.880 302.740,124.000 301.200 C 119.995 294.191,119.268 292.938,116.800 288.800 C 113.720 283.635,111.717 280.147,108.988 275.200 C 107.896 273.220,106.286 270.411,105.410 268.958 C 103.004 264.966,104.020 265.077,111.736 269.646 C 115.621 271.947,119.970 274.498,121.400 275.315 C 122.830 276.132,125.260 277.520,126.800 278.400 C 128.340 279.280,130.950 280.762,132.600 281.694 C 134.250 282.625,136.556 284.065,137.723 284.894 C 138.891 285.722,140.037 286.400,140.268 286.400 C 140.500 286.400,148.545 290.945,158.145 296.500 C 167.745 302.056,176.860 307.314,178.400 308.186 C 179.940 309.057,181.560 310.040,182.000 310.370 C 182.440 310.700,184.780 312.048,187.200 313.367 C 189.620 314.686,193.040 316.596,194.800 317.613 C 202.957 322.325,201.886 322.326,210.000 317.596 C 211.760 316.570,215.540 314.408,218.400 312.793 C 221.260 311.177,231.520 305.253,241.200 299.627 C 250.880 294.002,259.880 288.775,261.200 288.011 C 262.520 287.248,265.506 285.493,267.835 284.112 C 270.165 282.730,272.208 281.600,272.376 281.600 C 272.545 281.600,275.615 279.800,279.200 277.600 C 282.785 275.400,285.856 273.600,286.025 273.600 C 286.292 273.600,292.126 270.224,304.600 262.849 L 308.000 260.839 308.000 203.972 C 308.000 172.696,308.299 147.290,308.664 147.516 C 309.267 147.889,314.070 155.787,318.324 163.400 C 320.477 167.254,322.042 169.969,327.200 178.800 C 329.513 182.760,332.120 187.260,332.993 188.800 C 336.684 195.310,341.268 203.179,344.520 208.586 C 346.434 211.769,348.000 214.532,348.000 214.728 C 348.000 214.923,349.800 218.015,352.000 221.600 C 354.200 225.185,356.000 228.278,356.000 228.473 C 356.000 228.669,357.440 231.199,359.200 234.096 C 360.960 236.993,362.400 239.480,362.400 239.623 C 362.400 239.766,364.200 242.815,366.400 246.400 C 368.600 249.985,370.400 253.009,370.400 253.120 C 370.400 253.232,374.226 259.955,378.903 268.062 C 388.548 284.782,389.810 286.970,391.891 290.600 C 396.887 299.314,399.390 303.277,399.701 302.966 C 399.896 302.771,396.216 295.994,391.523 287.906 C 382.860 272.973,381.255 270.196,378.400 265.200 C 375.447 260.033,373.855 257.278,363.605 239.600 C 357.992 229.920,352.724 220.830,351.900 219.400 C 348.330 213.211,347.090 211.069,341.600 201.600 C 338.411 196.100,335.118 190.405,334.283 188.943 C 333.447 187.482,330.014 181.542,326.653 175.743 C 323.292 169.945,318.054 160.880,315.012 155.600 C 309.613 146.228,308.194 144.107,307.813 144.840 " stroke="none" fill="#6c2987" fill-rule="evenodd"></path><path id="path2" d="M197.600 94.308 C 194.276 96.323,190.645 101.164,186.131 109.600 C 185.543 110.700,184.329 112.860,183.434 114.400 C 182.054 116.775,158.035 158.339,153.500 166.200 C 152.675 167.630,151.280 170.060,150.400 171.600 C 149.520 173.140,148.124 175.570,147.297 177.000 C 142.636 185.066,130.782 205.664,129.226 208.400 C 128.226 210.160,125.514 214.840,123.200 218.800 C 120.886 222.760,118.091 227.620,116.988 229.600 C 115.885 231.580,113.719 235.360,112.174 238.000 C 108.170 244.841,107.555 253.527,110.991 254.683 C 111.766 254.943,113.654 255.886,115.188 256.778 C 117.941 258.380,119.014 258.400,202.388 258.366 L 286.800 258.333 290.800 256.047 L 294.800 253.762 295.033 248.165 C 295.219 243.707,294.934 241.980,293.633 239.684 C 291.477 235.877,289.147 231.801,287.298 228.600 C 284.659 224.033,255.852 174.103,254.296 171.400 C 253.473 169.970,252.131 167.630,251.313 166.200 C 250.495 164.770,247.739 160.000,245.189 155.600 C 231.332 131.686,222.712 116.716,220.547 112.800 C 209.760 93.295,205.257 89.666,197.600 94.308 M204.652 101.400 C 205.510 102.610,206.975 104.950,207.906 106.600 C 208.838 108.250,210.320 110.860,211.200 112.400 C 212.080 113.940,213.520 116.460,214.400 118.000 C 217.309 123.091,218.898 125.842,229.187 143.600 C 234.796 153.280,240.292 162.820,241.401 164.800 C 242.510 166.780,244.677 170.560,246.218 173.200 C 247.758 175.840,249.689 179.170,250.509 180.600 C 251.329 182.030,252.679 184.370,253.509 185.800 C 254.339 187.230,256.989 191.820,259.398 196.000 C 261.806 200.180,266.347 208.043,269.488 213.474 C 272.630 218.905,275.200 223.458,275.200 223.593 C 275.200 223.727,276.673 226.261,278.473 229.225 C 281.605 234.379,282.706 236.272,286.485 243.000 C 287.412 244.650,288.532 246.445,288.975 246.990 C 291.818 250.489,294.065 250.400,202.400 250.400 C 107.544 250.400,113.163 250.708,116.725 245.705 C 117.646 244.411,118.400 242.959,118.400 242.477 C 118.400 241.994,118.718 241.600,119.107 241.600 C 119.495 241.600,120.026 240.970,120.285 240.200 C 120.544 239.430,121.397 237.720,122.179 236.400 C 123.655 233.912,128.462 225.599,130.045 222.800 C 137.033 210.437,147.702 191.935,150.911 186.614 C 152.830 183.431,154.400 180.668,154.400 180.472 C 154.400 180.277,156.200 177.185,158.400 173.600 C 160.600 170.015,162.400 166.935,162.400 166.755 C 162.400 166.575,165.496 161.112,169.281 154.614 C 179.892 136.395,179.638 136.834,184.000 129.200 C 184.880 127.660,186.320 125.140,187.200 123.600 C 194.821 110.264,200.172 101.171,200.972 100.200 C 202.191 98.721,202.920 98.959,204.652 101.400 M308.000 203.972 L 308.000 260.839 304.600 262.849 C 292.126 270.224,286.292 273.600,286.025 273.600 C 285.856 273.600,282.785 275.400,279.200 277.600 C 275.615 279.800,272.545 281.600,272.376 281.600 C 272.208 281.600,270.165 282.730,267.835 284.112 C 265.506 285.493,262.520 287.248,261.200 288.011 C 259.880 288.775,250.880 294.002,241.200 299.627 C 231.520 305.253,221.260 311.177,218.400 312.793 C 215.540 314.408,211.760 316.570,210.000 317.596 C 201.886 322.326,202.957 322.325,194.800 317.613 C 193.040 316.596,189.620 314.686,187.200 313.367 C 184.780 312.048,182.440 310.700,182.000 310.370 C 181.560 310.040,179.940 309.057,178.400 308.186 C 176.860 307.314,167.745 302.056,158.145 296.500 C 148.545 290.945,140.500 286.400,140.268 286.400 C 140.037 286.400,138.891 285.722,137.723 284.894 C 136.556 284.065,134.250 282.625,132.600 281.694 C 130.950 280.762,128.340 279.280,126.800 278.400 C 125.260 277.520,122.830 276.132,121.400 275.315 C 119.970 274.498,115.621 271.947,111.736 269.646 C 104.020 265.077,103.004 264.966,105.410 268.958 C 106.286 270.411,107.896 273.220,108.988 275.200 C 111.717 280.147,113.720 283.635,116.800 288.800 C 119.268 292.938,119.995 294.191,124.000 301.200 C 124.880 302.740,126.269 305.170,127.086 306.600 C 129.365 310.588,143.998 336.063,145.696 339.000 C 146.523 340.430,147.920 342.860,148.800 344.400 C 149.680 345.940,151.075 348.370,151.900 349.800 C 175.070 389.963,180.000 398.641,180.000 399.260 C 180.000 399.710,223.117 400.000,290.000 400.000 L 400.000 400.000 400.000 352.082 L 400.000 304.164 396.727 298.775 C 394.926 295.812,392.766 292.175,391.927 290.693 C 390.141 287.543,389.996 287.290,378.903 268.062 C 374.226 259.955,370.400 253.232,370.400 253.120 C 370.400 253.009,368.600 249.985,366.400 246.400 C 364.200 242.815,362.400 239.766,362.400 239.623 C 362.400 239.480,360.960 236.993,359.200 234.096 C 357.440 231.199,356.000 228.669,356.000 228.473 C 356.000 228.278,354.200 225.185,352.000 221.600 C 349.800 218.015,348.000 214.923,348.000 214.728 C 348.000 214.532,346.434 211.769,344.520 208.586 C 341.268 203.179,336.684 195.310,332.993 188.800 C 332.120 187.260,329.513 182.760,327.200 178.800 C 322.042 169.969,320.477 167.254,318.324 163.400 C 314.070 155.787,309.267 147.889,308.664 147.516 C 308.299 147.290,308.000 172.696,308.000 203.972 " stroke="none" fill="#814598" fill-rule="evenodd"></path></g></svg>